<?xml version="1.0" encoding="UTF-8"?>
<svg xmlns="http://www.w3.org/2000/svg" xmlns:xlink="http://www.w3.org/1999/xlink" width="189pt" height="658pt" viewBox="0 0 189 658" version="1.1">
<defs>
<clipPath id="clip1">
  <path d="M 38.4375 643 L 44.375 643 L 44.375 648.75 L 38.4375 648.75 Z M 38.4375 643 "/>
</clipPath>
<clipPath id="clip2">
  <path d="M 27.1875 571.40625 L 33 571.40625 L 33 577.34375 L 27.1875 577.34375 Z M 27.1875 571.40625 "/>
</clipPath>
<clipPath id="clip3">
  <path d="M 174 194 L 181 194 L 181 200 L 174 200 Z M 174 194 "/>
</clipPath>
<clipPath id="clip4">
  <path d="M 174.4375 199.964844 L 180.6875 199.859375 L 180.578125 193.609375 L 174.328125 193.71875 Z M 174.4375 199.964844 "/>
</clipPath>
<clipPath id="clip5">
  <path d="M 174.332031 193.875 L 180.269531 193.769531 L 180.371094 199.707031 L 174.433594 199.808594 Z M 174.332031 193.875 "/>
</clipPath>
<clipPath id="clip6">
  <path d="M 174.433594 199.808594 L 180.371094 199.707031 L 180.269531 193.769531 L 174.332031 193.875 Z M 174.433594 199.808594 "/>
</clipPath>
</defs>
<g id="surface1">
<path style="fill:none;stroke-width:1;stroke-linecap:round;stroke-linejoin:round;stroke:rgb(0%,0%,0%);stroke-opacity:1;stroke-dasharray:4,4;stroke-miterlimit:10;" d="M 189.79375 230.5875 L 239.565625 230.5875 L 239.565625 297.2375 L 189.79375 297.2375 Z M 189.79375 230.5875 " transform="matrix(1.25,0,0,1.25,-208.75,177.5)"/>
<path style=" stroke:none;fill-rule:nonzero;fill:rgb(69.803922%,85.098039%,100%);fill-opacity:1;" d="M 34.570312 542.898438 L 85.03125 542.898438 L 85.03125 533.238281 L 34.570312 533.238281 Z M 34.570312 542.898438 "/>
<path style="fill:none;stroke-width:1;stroke-linecap:round;stroke-linejoin:round;stroke:rgb(0%,0%,0%);stroke-opacity:1;stroke-miterlimit:10;" d="M 194.65625 284.590625 L 235.025 284.590625 L 235.025 292.31875 L 194.65625 292.31875 Z M 194.65625 284.590625 " transform="matrix(1.25,0,0,1.25,-208.75,177.5)"/>
<path style="fill:none;stroke-width:1;stroke-linecap:round;stroke-linejoin:round;stroke:rgb(0%,0%,0%);stroke-opacity:1;stroke-miterlimit:10;" d="M 214.840625 303.95625 L 214.840625 295.81875 " transform="matrix(1.25,0,0,1.25,-208.75,177.5)"/>
<path style="fill:none;stroke-width:1;stroke-linecap:butt;stroke-linejoin:miter;stroke:rgb(0%,0%,0%);stroke-opacity:1;stroke-miterlimit:10;" d="M 214.840625 294.21875 L 214.840625 295.81875 M 214.2375 295.81875 L 214.840625 294.21875 L 215.4375 295.81875 " transform="matrix(1.25,0,0,1.25,-208.75,177.5)"/>
<path style="fill-rule:nonzero;fill:rgb(40%,74.901961%,100%);fill-opacity:1;stroke-width:1;stroke-linecap:round;stroke-linejoin:round;stroke:rgb(0%,0%,0%);stroke-opacity:1;stroke-miterlimit:10;" d="M 216.725 221.215625 C 217.859375 222.346875 217.859375 224.184375 216.725 225.315625 C 215.59375 226.44375 213.7625 226.44375 212.628125 225.315625 C 211.496875 224.184375 211.496875 222.346875 212.628125 221.215625 C 213.7625 220.08125 215.59375 220.08125 216.725 221.215625 " transform="matrix(1.25,0,0,1.25,-208.75,177.5)"/>
<path style=" stroke:none;fill-rule:nonzero;fill:rgb(0%,0%,0%);fill-opacity:1;" d="M 59.511719 458.257812 L 59.511719 457.027344 L 58.300781 457.027344 L 58.300781 456.519531 L 59.511719 456.519531 L 59.511719 455.308594 L 60.039062 455.308594 L 60.039062 456.519531 L 61.25 456.519531 L 61.25 457.027344 L 60.039062 457.027344 L 60.039062 458.257812 Z M 59.511719 458.257812 "/>
<path style="fill:none;stroke-width:1;stroke-linecap:round;stroke-linejoin:round;stroke:rgb(0%,0%,0%);stroke-opacity:1;stroke-miterlimit:10;" d="M 194.65625 272.309375 L 235.025 272.309375 L 235.025 280.0375 L 194.65625 280.0375 Z M 194.65625 272.309375 " transform="matrix(1.25,0,0,1.25,-208.75,177.5)"/>
<path style=" stroke:none;fill-rule:nonzero;fill:rgb(40%,74.901961%,100%);fill-opacity:1;" d="M 34.570312 447.425781 L 85.03125 447.425781 L 85.03125 437.769531 L 34.570312 437.769531 Z M 34.570312 447.425781 "/>
<path style="fill:none;stroke-width:1;stroke-linecap:round;stroke-linejoin:round;stroke:rgb(0%,0%,0%);stroke-opacity:1;stroke-miterlimit:10;" d="M 194.65625 208.215625 L 235.025 208.215625 L 235.025 215.940625 L 194.65625 215.940625 Z M 194.65625 208.215625 " transform="matrix(1.25,0,0,1.25,-208.75,177.5)"/>
<path style=" stroke:none;fill-rule:nonzero;fill:rgb(40%,74.901961%,100%);fill-opacity:1;" d="M 34.570312 512.195312 L 85.03125 512.195312 L 85.03125 502.535156 L 34.570312 502.535156 Z M 34.570312 512.195312 "/>
<path style="fill:none;stroke-width:1;stroke-linecap:round;stroke-linejoin:round;stroke:rgb(0%,0%,0%);stroke-opacity:1;stroke-miterlimit:10;" d="M 194.65625 260.028125 L 235.025 260.028125 L 235.025 267.75625 L 194.65625 267.75625 Z M 194.65625 260.028125 " transform="matrix(1.25,0,0,1.25,-208.75,177.5)"/>
<path style="fill:none;stroke-width:1;stroke-linecap:round;stroke-linejoin:round;stroke:rgb(0%,0%,0%);stroke-opacity:1;stroke-miterlimit:10;" d="M 214.840625 284.590625 L 214.840625 283.5375 " transform="matrix(1.25,0,0,1.25,-208.75,177.5)"/>
<path style="fill:none;stroke-width:1;stroke-linecap:butt;stroke-linejoin:miter;stroke:rgb(0%,0%,0%);stroke-opacity:1;stroke-miterlimit:10;" d="M 214.840625 281.9375 L 214.840625 283.5375 M 214.2375 283.5375 L 214.840625 281.9375 L 215.4375 283.5375 " transform="matrix(1.25,0,0,1.25,-208.75,177.5)"/>
<path style="fill:none;stroke-width:1;stroke-linecap:round;stroke-linejoin:round;stroke:rgb(0%,0%,0%);stroke-opacity:1;stroke-miterlimit:10;" d="M 214.840625 272.309375 L 214.840625 271.25625 " transform="matrix(1.25,0,0,1.25,-208.75,177.5)"/>
<path style="fill:none;stroke-width:1;stroke-linecap:butt;stroke-linejoin:miter;stroke:rgb(0%,0%,0%);stroke-opacity:1;stroke-miterlimit:10;" d="M 214.840625 269.65625 L 214.840625 271.25625 M 214.2375 271.25625 L 214.840625 269.65625 L 215.4375 271.25625 " transform="matrix(1.25,0,0,1.25,-208.75,177.5)"/>
<path style="fill:none;stroke-width:1;stroke-linecap:round;stroke-linejoin:round;stroke:rgb(0%,0%,0%);stroke-opacity:1;stroke-miterlimit:10;" d="M 214.796875 234.471875 L 214.746875 229.6625 " transform="matrix(1.25,0,0,1.25,-208.75,177.5)"/>
<path style="fill:none;stroke-width:1;stroke-linecap:butt;stroke-linejoin:miter;stroke:rgb(0%,0%,0%);stroke-opacity:1;stroke-miterlimit:10;" d="M 214.73125 228.0625 L 214.746875 229.6625 M 214.14375 229.671875 L 214.73125 228.0625 L 215.346875 229.65625 " transform="matrix(1.25,0,0,1.25,-208.75,177.5)"/>
<path style="fill:none;stroke-width:1;stroke-linecap:round;stroke-linejoin:round;stroke:rgb(0%,0%,0%);stroke-opacity:1;stroke-miterlimit:10;" d="M 214.71875 220.36875 L 214.734375 219.440625 " transform="matrix(1.25,0,0,1.25,-208.75,177.5)"/>
<path style="fill:none;stroke-width:1;stroke-linecap:butt;stroke-linejoin:miter;stroke:rgb(0%,0%,0%);stroke-opacity:1;stroke-miterlimit:10;" d="M 214.75625 217.84375 L 214.734375 219.440625 M 214.13125 219.434375 L 214.75625 217.84375 L 215.33125 219.453125 " transform="matrix(1.25,0,0,1.25,-208.75,177.5)"/>
<path style="fill:none;stroke-width:1;stroke-linecap:round;stroke-linejoin:round;stroke:rgb(0%,0%,0%);stroke-opacity:1;stroke-miterlimit:10;" d="M 214.840625 300.715625 L 224.825 300.715625 C 224.83125 300.715625 224.84375 300.715625 224.85625 300.715625 L 241.54375 300.534375 C 243.184375 300.515625 244.50625 299.184375 244.5125 297.54375 L 244.71875 227.028125 C 244.71875 227.025 244.71875 227.01875 244.71875 227.01875 L 244.71875 225.14375 C 244.71875 224.10625 243.875 223.265625 242.840625 223.265625 L 221.078125 223.265625 " transform="matrix(1.25,0,0,1.25,-208.75,177.5)"/>
<path style="fill:none;stroke-width:1;stroke-linecap:butt;stroke-linejoin:miter;stroke:rgb(0%,0%,0%);stroke-opacity:1;stroke-miterlimit:10;" d="M 219.475 223.265625 L 221.078125 223.265625 M 221.078125 223.8625 L 219.475 223.265625 L 221.078125 222.6625 " transform="matrix(1.25,0,0,1.25,-208.75,177.5)"/>
<path style=" stroke:none;fill-rule:nonzero;fill:rgb(69.803922%,85.098039%,100%);fill-opacity:1;" d="M 34.570312 495.605469 L 85.03125 495.605469 L 85.03125 485.945312 L 34.570312 485.945312 Z M 34.570312 495.605469 "/>
<path style="fill:none;stroke-width:1;stroke-linecap:round;stroke-linejoin:round;stroke:rgb(0%,0%,0%);stroke-opacity:1;stroke-miterlimit:10;" d="M 194.65625 246.75625 L 235.025 246.75625 L 235.025 254.484375 L 194.65625 254.484375 Z M 194.65625 246.75625 " transform="matrix(1.25,0,0,1.25,-208.75,177.5)"/>
<path style="fill:none;stroke-width:1;stroke-linecap:round;stroke-linejoin:round;stroke:rgb(0%,0%,0%);stroke-opacity:1;stroke-miterlimit:10;" d="M 214.840625 260.028125 L 214.840625 257.984375 " transform="matrix(1.25,0,0,1.25,-208.75,177.5)"/>
<path style="fill:none;stroke-width:1;stroke-linecap:butt;stroke-linejoin:miter;stroke:rgb(0%,0%,0%);stroke-opacity:1;stroke-miterlimit:10;" d="M 214.840625 256.3875 L 214.840625 257.984375 M 214.2375 257.984375 L 214.840625 256.3875 L 215.4375 257.984375 " transform="matrix(1.25,0,0,1.25,-208.75,177.5)"/>
<path style="fill:none;stroke-width:1;stroke-linecap:round;stroke-linejoin:round;stroke:rgb(0%,0%,0%);stroke-opacity:1;stroke-miterlimit:10;" d="M 194.65625 234.471875 L 235.025 234.471875 L 235.025 242.203125 L 194.65625 242.203125 Z M 194.65625 234.471875 " transform="matrix(1.25,0,0,1.25,-208.75,177.5)"/>
<path style="fill:none;stroke-width:1;stroke-linecap:round;stroke-linejoin:round;stroke:rgb(0%,0%,0%);stroke-opacity:1;stroke-miterlimit:10;" d="M 214.840625 246.75625 L 214.840625 245.703125 " transform="matrix(1.25,0,0,1.25,-208.75,177.5)"/>
<path style="fill:none;stroke-width:1;stroke-linecap:butt;stroke-linejoin:miter;stroke:rgb(0%,0%,0%);stroke-opacity:1;stroke-miterlimit:10;" d="M 214.840625 244.10625 L 214.840625 245.703125 M 214.2375 245.703125 L 214.840625 244.10625 L 215.4375 245.703125 " transform="matrix(1.25,0,0,1.25,-208.75,177.5)"/>
<path style="fill:none;stroke-width:1;stroke-linecap:round;stroke-linejoin:round;stroke:rgb(0%,0%,0%);stroke-opacity:1;stroke-dasharray:4,4;stroke-miterlimit:10;" d="M 189.79375 37.05625 L 239.565625 37.05625 L 239.565625 103.70625 L 189.79375 103.70625 Z M 189.79375 37.05625 " transform="matrix(1.25,0,0,1.25,-208.75,177.5)"/>
<path style=" stroke:none;fill-rule:nonzero;fill:rgb(69.803922%,85.098039%,100%);fill-opacity:1;" d="M 34.570312 300.984375 L 85.03125 300.984375 L 85.03125 291.324219 L 34.570312 291.324219 Z M 34.570312 300.984375 "/>
<path style="fill:none;stroke-width:1;stroke-linecap:round;stroke-linejoin:round;stroke:rgb(0%,0%,0%);stroke-opacity:1;stroke-miterlimit:10;" d="M 194.65625 91.059375 L 235.025 91.059375 L 235.025 98.7875 L 194.65625 98.7875 Z M 194.65625 91.059375 " transform="matrix(1.25,0,0,1.25,-208.75,177.5)"/>
<path style="fill:none;stroke-width:1;stroke-linecap:round;stroke-linejoin:round;stroke:rgb(0%,0%,0%);stroke-opacity:1;stroke-miterlimit:10;" d="M 214.96875 111.8 L 214.89375 102.2875 " transform="matrix(1.25,0,0,1.25,-208.75,177.5)"/>
<path style="fill:none;stroke-width:1;stroke-linecap:butt;stroke-linejoin:miter;stroke:rgb(0%,0%,0%);stroke-opacity:1;stroke-miterlimit:10;" d="M 214.88125 100.6875 L 214.89375 102.2875 M 214.296875 102.29375 L 214.88125 100.6875 L 215.496875 102.284375 " transform="matrix(1.25,0,0,1.25,-208.75,177.5)"/>
<path style="fill-rule:nonzero;fill:rgb(40%,74.901961%,100%);fill-opacity:1;stroke-width:1;stroke-linecap:round;stroke-linejoin:round;stroke:rgb(0%,0%,0%);stroke-opacity:1;stroke-miterlimit:10;" d="M 216.725 27.684375 C 217.859375 28.815625 217.859375 30.653125 216.725 31.784375 C 215.59375 32.9125 213.7625 32.9125 212.628125 31.784375 C 211.496875 30.653125 211.496875 28.815625 212.628125 27.684375 C 213.7625 26.55 215.59375 26.55 216.725 27.684375 " transform="matrix(1.25,0,0,1.25,-208.75,177.5)"/>
<path style=" stroke:none;fill-rule:nonzero;fill:rgb(0%,0%,0%);fill-opacity:1;" d="M 59.511719 216.34375 L 59.511719 215.113281 L 58.300781 215.113281 L 58.300781 214.605469 L 59.511719 214.605469 L 59.511719 213.394531 L 60.039062 213.394531 L 60.039062 214.605469 L 61.25 214.605469 L 61.25 215.113281 L 60.039062 215.113281 L 60.039062 216.34375 Z M 59.511719 216.34375 "/>
<path style="fill:none;stroke-width:1;stroke-linecap:round;stroke-linejoin:round;stroke:rgb(0%,0%,0%);stroke-opacity:1;stroke-miterlimit:10;" d="M 194.65625 78.778125 L 235.025 78.778125 L 235.025 86.50625 L 194.65625 86.50625 Z M 194.65625 78.778125 " transform="matrix(1.25,0,0,1.25,-208.75,177.5)"/>
<path style=" stroke:none;fill-rule:nonzero;fill:rgb(40%,74.901961%,100%);fill-opacity:1;" d="M 34.570312 205.511719 L 85.03125 205.511719 L 85.03125 195.851562 L 34.570312 195.851562 Z M 34.570312 205.511719 "/>
<path style="fill:none;stroke-width:1;stroke-linecap:round;stroke-linejoin:round;stroke:rgb(0%,0%,0%);stroke-opacity:1;stroke-miterlimit:10;" d="M 194.65625 14.68125 L 235.025 14.68125 L 235.025 22.409375 L 194.65625 22.409375 Z M 194.65625 14.68125 " transform="matrix(1.25,0,0,1.25,-208.75,177.5)"/>
<path style=" stroke:none;fill-rule:nonzero;fill:rgb(40%,74.901961%,100%);fill-opacity:1;" d="M 34.570312 270.277344 L 85.03125 270.277344 L 85.03125 260.621094 L 34.570312 260.621094 Z M 34.570312 270.277344 "/>
<path style="fill:none;stroke-width:1;stroke-linecap:round;stroke-linejoin:round;stroke:rgb(0%,0%,0%);stroke-opacity:1;stroke-miterlimit:10;" d="M 194.65625 66.496875 L 235.025 66.496875 L 235.025 74.221875 L 194.65625 74.221875 Z M 194.65625 66.496875 " transform="matrix(1.25,0,0,1.25,-208.75,177.5)"/>
<path style="fill:none;stroke-width:1;stroke-linecap:round;stroke-linejoin:round;stroke:rgb(0%,0%,0%);stroke-opacity:1;stroke-miterlimit:10;" d="M 214.840625 91.059375 L 214.840625 90.00625 " transform="matrix(1.25,0,0,1.25,-208.75,177.5)"/>
<path style="fill:none;stroke-width:1;stroke-linecap:butt;stroke-linejoin:miter;stroke:rgb(0%,0%,0%);stroke-opacity:1;stroke-miterlimit:10;" d="M 214.840625 88.40625 L 214.840625 90.00625 M 214.2375 90.00625 L 214.840625 88.40625 L 215.4375 90.00625 " transform="matrix(1.25,0,0,1.25,-208.75,177.5)"/>
<path style="fill:none;stroke-width:1;stroke-linecap:round;stroke-linejoin:round;stroke:rgb(0%,0%,0%);stroke-opacity:1;stroke-miterlimit:10;" d="M 214.840625 78.778125 L 214.840625 77.721875 " transform="matrix(1.25,0,0,1.25,-208.75,177.5)"/>
<path style="fill:none;stroke-width:1;stroke-linecap:butt;stroke-linejoin:miter;stroke:rgb(0%,0%,0%);stroke-opacity:1;stroke-miterlimit:10;" d="M 214.840625 76.125 L 214.840625 77.721875 M 214.2375 77.721875 L 214.840625 76.125 L 215.4375 77.721875 " transform="matrix(1.25,0,0,1.25,-208.75,177.5)"/>
<path style="fill:none;stroke-width:1;stroke-linecap:round;stroke-linejoin:round;stroke:rgb(0%,0%,0%);stroke-opacity:1;stroke-miterlimit:10;" d="M 214.796875 40.940625 L 214.746875 36.13125 " transform="matrix(1.25,0,0,1.25,-208.75,177.5)"/>
<path style="fill:none;stroke-width:1;stroke-linecap:butt;stroke-linejoin:miter;stroke:rgb(0%,0%,0%);stroke-opacity:1;stroke-miterlimit:10;" d="M 214.73125 34.53125 L 214.746875 36.13125 M 214.14375 36.1375 L 214.73125 34.53125 L 215.346875 36.125 " transform="matrix(1.25,0,0,1.25,-208.75,177.5)"/>
<path style="fill:none;stroke-width:1;stroke-linecap:round;stroke-linejoin:round;stroke:rgb(0%,0%,0%);stroke-opacity:1;stroke-miterlimit:10;" d="M 214.71875 26.8375 L 214.734375 25.909375 " transform="matrix(1.25,0,0,1.25,-208.75,177.5)"/>
<path style="fill:none;stroke-width:1;stroke-linecap:butt;stroke-linejoin:miter;stroke:rgb(0%,0%,0%);stroke-opacity:1;stroke-miterlimit:10;" d="M 214.75625 24.3125 L 214.734375 25.909375 M 214.13125 25.903125 L 214.75625 24.3125 L 215.33125 25.91875 " transform="matrix(1.25,0,0,1.25,-208.75,177.5)"/>
<path style="fill:none;stroke-width:1;stroke-linecap:round;stroke-linejoin:round;stroke:rgb(0%,0%,0%);stroke-opacity:1;stroke-miterlimit:10;" d="M 214.940625 108.175 L 263.265625 108.175 C 264.921875 108.175 266.265625 106.83125 266.265625 105.175 L 266.265625 77.746875 " transform="matrix(1.25,0,0,1.25,-208.75,177.5)"/>
<path style="fill:none;stroke-width:1;stroke-linecap:butt;stroke-linejoin:miter;stroke:rgb(0%,0%,0%);stroke-opacity:1;stroke-miterlimit:10;" d="M 266.265625 76.14375 L 266.265625 77.746875 M 265.6625 77.746875 L 266.265625 76.14375 L 266.86875 77.746875 " transform="matrix(1.25,0,0,1.25,-208.75,177.5)"/>
<path style=" stroke:none;fill-rule:nonzero;fill:rgb(69.803922%,85.098039%,100%);fill-opacity:1;" d="M 34.570312 253.691406 L 85.03125 253.691406 L 85.03125 244.027344 L 34.570312 244.027344 Z M 34.570312 253.691406 "/>
<path style="fill:none;stroke-width:1;stroke-linecap:round;stroke-linejoin:round;stroke:rgb(0%,0%,0%);stroke-opacity:1;stroke-miterlimit:10;" d="M 194.65625 53.221875 L 235.025 53.221875 L 235.025 60.953125 L 194.65625 60.953125 Z M 194.65625 53.221875 " transform="matrix(1.25,0,0,1.25,-208.75,177.5)"/>
<path style="fill:none;stroke-width:1;stroke-linecap:round;stroke-linejoin:round;stroke:rgb(0%,0%,0%);stroke-opacity:1;stroke-miterlimit:10;" d="M 214.840625 66.496875 L 214.840625 64.453125 " transform="matrix(1.25,0,0,1.25,-208.75,177.5)"/>
<path style="fill:none;stroke-width:1;stroke-linecap:butt;stroke-linejoin:miter;stroke:rgb(0%,0%,0%);stroke-opacity:1;stroke-miterlimit:10;" d="M 214.840625 62.85625 L 214.840625 64.453125 M 214.2375 64.453125 L 214.840625 62.85625 L 215.4375 64.453125 " transform="matrix(1.25,0,0,1.25,-208.75,177.5)"/>
<path style="fill:none;stroke-width:1;stroke-linecap:round;stroke-linejoin:round;stroke:rgb(0%,0%,0%);stroke-opacity:1;stroke-miterlimit:10;" d="M 194.65625 40.940625 L 235.025 40.940625 L 235.025 48.671875 L 194.65625 48.671875 Z M 194.65625 40.940625 " transform="matrix(1.25,0,0,1.25,-208.75,177.5)"/>
<path style="fill:none;stroke-width:1;stroke-linecap:round;stroke-linejoin:round;stroke:rgb(0%,0%,0%);stroke-opacity:1;stroke-miterlimit:10;" d="M 214.840625 53.221875 L 214.840625 52.171875 " transform="matrix(1.25,0,0,1.25,-208.75,177.5)"/>
<path style="fill:none;stroke-width:1;stroke-linecap:butt;stroke-linejoin:miter;stroke:rgb(0%,0%,0%);stroke-opacity:1;stroke-miterlimit:10;" d="M 214.840625 50.575 L 214.840625 52.171875 M 214.2375 52.171875 L 214.840625 50.575 L 215.4375 52.171875 " transform="matrix(1.25,0,0,1.25,-208.75,177.5)"/>
<path style=" stroke:none;fill-rule:nonzero;fill:rgb(69.803922%,85.098039%,100%);fill-opacity:1;" d="M 98.851562 270.308594 L 149.3125 270.308594 L 149.3125 260.644531 L 98.851562 260.644531 Z M 98.851562 270.308594 "/>
<path style="fill:none;stroke-width:1;stroke-linecap:round;stroke-linejoin:round;stroke:rgb(0%,0%,0%);stroke-opacity:1;stroke-miterlimit:10;" d="M 246.08125 66.515625 L 286.45 66.515625 L 286.45 74.246875 L 246.08125 74.246875 Z M 246.08125 66.515625 " transform="matrix(1.25,0,0,1.25,-208.75,177.5)"/>
<path style="fill:none;stroke-width:1;stroke-linecap:round;stroke-linejoin:round;stroke:rgb(0%,0%,0%);stroke-opacity:1;stroke-miterlimit:10;" d="M 266.265625 66.515625 L 266.265625 32.734375 C 266.265625 31.078125 264.921875 29.734375 263.265625 29.734375 L 221.078125 29.734375 " transform="matrix(1.25,0,0,1.25,-208.75,177.5)"/>
<path style="fill:none;stroke-width:1;stroke-linecap:butt;stroke-linejoin:miter;stroke:rgb(0%,0%,0%);stroke-opacity:1;stroke-miterlimit:10;" d="M 219.475 29.734375 L 221.078125 29.734375 M 221.078125 30.33125 L 219.475 29.734375 L 221.078125 29.13125 " transform="matrix(1.25,0,0,1.25,-208.75,177.5)"/>
<path style="fill:none;stroke-width:1;stroke-linecap:round;stroke-linejoin:round;stroke:rgb(0%,0%,0%);stroke-opacity:1;stroke-dasharray:4,4;stroke-miterlimit:10;" d="M 189.953125 134.175 L 239.725 134.175 L 239.725 200.828125 L 189.953125 200.828125 Z M 189.953125 134.175 " transform="matrix(1.25,0,0,1.25,-208.75,177.5)"/>
<path style=" stroke:none;fill-rule:nonzero;fill:rgb(69.803922%,85.098039%,100%);fill-opacity:1;" d="M 34.769531 422.386719 L 85.230469 422.386719 L 85.230469 412.726562 L 34.769531 412.726562 Z M 34.769531 422.386719 "/>
<path style="fill:none;stroke-width:1;stroke-linecap:round;stroke-linejoin:round;stroke:rgb(0%,0%,0%);stroke-opacity:1;stroke-miterlimit:10;" d="M 194.815625 188.18125 L 235.184375 188.18125 L 235.184375 195.909375 L 194.815625 195.909375 Z M 194.815625 188.18125 " transform="matrix(1.25,0,0,1.25,-208.75,177.5)"/>
<path style="fill:none;stroke-width:1;stroke-linecap:round;stroke-linejoin:round;stroke:rgb(0%,0%,0%);stroke-opacity:1;stroke-miterlimit:10;" d="M 214.871875 208.215625 L 214.940625 199.409375 " transform="matrix(1.25,0,0,1.25,-208.75,177.5)"/>
<path style="fill:none;stroke-width:1;stroke-linecap:butt;stroke-linejoin:miter;stroke:rgb(0%,0%,0%);stroke-opacity:1;stroke-miterlimit:10;" d="M 214.953125 197.809375 L 214.940625 199.409375 M 214.340625 199.403125 L 214.953125 197.809375 L 215.5375 199.4125 " transform="matrix(1.25,0,0,1.25,-208.75,177.5)"/>
<path style="fill-rule:nonzero;fill:rgb(40%,74.901961%,100%);fill-opacity:1;stroke-width:1;stroke-linecap:round;stroke-linejoin:round;stroke:rgb(0%,0%,0%);stroke-opacity:1;stroke-miterlimit:10;" d="M 216.890625 124.80625 C 218.01875 125.9375 218.01875 127.76875 216.890625 128.903125 C 215.75625 130.034375 213.921875 130.034375 212.7875 128.903125 C 211.65625 127.76875 211.65625 125.9375 212.7875 124.80625 C 213.921875 123.671875 215.75625 123.671875 216.890625 124.80625 " transform="matrix(1.25,0,0,1.25,-208.75,177.5)"/>
<path style=" stroke:none;fill-rule:nonzero;fill:rgb(0%,0%,0%);fill-opacity:1;" d="M 59.710938 337.742188 L 59.710938 336.511719 L 58.5 336.511719 L 58.5 336.003906 L 59.710938 336.003906 L 59.710938 334.792969 L 60.238281 334.792969 L 60.238281 336.003906 L 61.449219 336.003906 L 61.449219 336.511719 L 60.238281 336.511719 L 60.238281 337.742188 Z M 59.710938 337.742188 "/>
<path style="fill:none;stroke-width:1;stroke-linecap:round;stroke-linejoin:round;stroke:rgb(0%,0%,0%);stroke-opacity:1;stroke-miterlimit:10;" d="M 194.815625 175.9 L 235.184375 175.9 L 235.184375 183.625 L 194.815625 183.625 Z M 194.815625 175.9 " transform="matrix(1.25,0,0,1.25,-208.75,177.5)"/>
<path style=" stroke:none;fill-rule:nonzero;fill:rgb(40%,74.901961%,100%);fill-opacity:1;" d="M 34.769531 326.914062 L 85.230469 326.914062 L 85.230469 317.25 L 34.769531 317.25 Z M 34.769531 326.914062 "/>
<path style="fill:none;stroke-width:1;stroke-linecap:round;stroke-linejoin:round;stroke:rgb(0%,0%,0%);stroke-opacity:1;stroke-miterlimit:10;" d="M 194.815625 111.8 L 235.184375 111.8 L 235.184375 119.53125 L 194.815625 119.53125 Z M 194.815625 111.8 " transform="matrix(1.25,0,0,1.25,-208.75,177.5)"/>
<path style=" stroke:none;fill-rule:nonzero;fill:rgb(40%,74.901961%,100%);fill-opacity:1;" d="M 34.769531 391.679688 L 85.230469 391.679688 L 85.230469 382.015625 L 34.769531 382.015625 Z M 34.769531 391.679688 "/>
<path style="fill:none;stroke-width:1;stroke-linecap:round;stroke-linejoin:round;stroke:rgb(0%,0%,0%);stroke-opacity:1;stroke-miterlimit:10;" d="M 194.815625 163.6125 L 235.184375 163.6125 L 235.184375 171.34375 L 194.815625 171.34375 Z M 194.815625 163.6125 " transform="matrix(1.25,0,0,1.25,-208.75,177.5)"/>
<path style="fill:none;stroke-width:1;stroke-linecap:round;stroke-linejoin:round;stroke:rgb(0%,0%,0%);stroke-opacity:1;stroke-miterlimit:10;" d="M 215 188.18125 L 215 187.125 " transform="matrix(1.25,0,0,1.25,-208.75,177.5)"/>
<path style="fill:none;stroke-width:1;stroke-linecap:butt;stroke-linejoin:miter;stroke:rgb(0%,0%,0%);stroke-opacity:1;stroke-miterlimit:10;" d="M 215 185.528125 L 215 187.125 M 214.4 187.125 L 215 185.528125 L 215.6 187.125 " transform="matrix(1.25,0,0,1.25,-208.75,177.5)"/>
<path style="fill:none;stroke-width:1;stroke-linecap:round;stroke-linejoin:round;stroke:rgb(0%,0%,0%);stroke-opacity:1;stroke-miterlimit:10;" d="M 215 175.9 L 215 174.84375 " transform="matrix(1.25,0,0,1.25,-208.75,177.5)"/>
<path style="fill:none;stroke-width:1;stroke-linecap:butt;stroke-linejoin:miter;stroke:rgb(0%,0%,0%);stroke-opacity:1;stroke-miterlimit:10;" d="M 215 173.246875 L 215 174.84375 M 214.4 174.84375 L 215 173.246875 L 215.6 174.84375 " transform="matrix(1.25,0,0,1.25,-208.75,177.5)"/>
<path style="fill:none;stroke-width:1;stroke-linecap:round;stroke-linejoin:round;stroke:rgb(0%,0%,0%);stroke-opacity:1;stroke-miterlimit:10;" d="M 214.95625 138.0625 L 214.90625 133.253125 " transform="matrix(1.25,0,0,1.25,-208.75,177.5)"/>
<path style="fill:none;stroke-width:1;stroke-linecap:butt;stroke-linejoin:miter;stroke:rgb(0%,0%,0%);stroke-opacity:1;stroke-miterlimit:10;" d="M 214.890625 131.653125 L 214.90625 133.253125 M 214.309375 133.25625 L 214.890625 131.653125 L 215.50625 133.246875 " transform="matrix(1.25,0,0,1.25,-208.75,177.5)"/>
<path style="fill:none;stroke-width:1;stroke-linecap:round;stroke-linejoin:round;stroke:rgb(0%,0%,0%);stroke-opacity:1;stroke-miterlimit:10;" d="M 214.878125 123.95625 L 214.89375 123.03125 " transform="matrix(1.25,0,0,1.25,-208.75,177.5)"/>
<path style="fill:none;stroke-width:1;stroke-linecap:butt;stroke-linejoin:miter;stroke:rgb(0%,0%,0%);stroke-opacity:1;stroke-miterlimit:10;" d="M 214.91875 121.43125 L 214.89375 123.03125 M 214.29375 123.025 L 214.91875 121.43125 L 215.49375 123.0375 " transform="matrix(1.25,0,0,1.25,-208.75,177.5)"/>
<path style="fill:none;stroke-width:1;stroke-linecap:round;stroke-linejoin:round;stroke:rgb(0%,0%,0%);stroke-opacity:1;stroke-miterlimit:10;" d="M 214.903125 203.984375 L 224.89375 203.984375 C 224.903125 203.984375 224.90625 203.984375 224.9125 203.984375 L 241.65625 204.075 C 243.3125 204.08125 244.6625 202.746875 244.671875 201.090625 C 244.671875 201.0875 244.671875 201.0875 244.671875 201.08125 L 244.878125 130.61875 C 244.878125 130.6125 244.878125 130.609375 244.878125 130.60625 L 244.878125 128.734375 C 244.878125 127.69375 244.0375 126.85625 243 126.85625 L 221.2375 126.85625 " transform="matrix(1.25,0,0,1.25,-208.75,177.5)"/>
<path style="fill:none;stroke-width:1;stroke-linecap:butt;stroke-linejoin:miter;stroke:rgb(0%,0%,0%);stroke-opacity:1;stroke-miterlimit:10;" d="M 219.6375 126.85625 L 221.2375 126.85625 M 221.2375 127.453125 L 219.6375 126.85625 L 221.2375 126.253125 " transform="matrix(1.25,0,0,1.25,-208.75,177.5)"/>
<path style=" stroke:none;fill-rule:nonzero;fill:rgb(69.803922%,85.098039%,100%);fill-opacity:1;" d="M 34.769531 375.09375 L 85.230469 375.09375 L 85.230469 365.429688 L 34.769531 365.429688 Z M 34.769531 375.09375 "/>
<path style="fill:none;stroke-width:1;stroke-linecap:round;stroke-linejoin:round;stroke:rgb(0%,0%,0%);stroke-opacity:1;stroke-miterlimit:10;" d="M 194.815625 150.34375 L 235.184375 150.34375 L 235.184375 158.075 L 194.815625 158.075 Z M 194.815625 150.34375 " transform="matrix(1.25,0,0,1.25,-208.75,177.5)"/>
<path style="fill:none;stroke-width:1;stroke-linecap:round;stroke-linejoin:round;stroke:rgb(0%,0%,0%);stroke-opacity:1;stroke-miterlimit:10;" d="M 215 163.6125 L 215 161.575 " transform="matrix(1.25,0,0,1.25,-208.75,177.5)"/>
<path style="fill:none;stroke-width:1;stroke-linecap:butt;stroke-linejoin:miter;stroke:rgb(0%,0%,0%);stroke-opacity:1;stroke-miterlimit:10;" d="M 215 159.975 L 215 161.575 M 214.4 161.575 L 215 159.975 L 215.6 161.575 " transform="matrix(1.25,0,0,1.25,-208.75,177.5)"/>
<path style="fill:none;stroke-width:1;stroke-linecap:round;stroke-linejoin:round;stroke:rgb(0%,0%,0%);stroke-opacity:1;stroke-miterlimit:10;" d="M 194.815625 138.0625 L 235.184375 138.0625 L 235.184375 145.79375 L 194.815625 145.79375 Z M 194.815625 138.0625 " transform="matrix(1.25,0,0,1.25,-208.75,177.5)"/>
<path style="fill:none;stroke-width:1;stroke-linecap:round;stroke-linejoin:round;stroke:rgb(0%,0%,0%);stroke-opacity:1;stroke-miterlimit:10;" d="M 215 150.34375 L 215 149.29375 " transform="matrix(1.25,0,0,1.25,-208.75,177.5)"/>
<path style="fill:none;stroke-width:1;stroke-linecap:butt;stroke-linejoin:miter;stroke:rgb(0%,0%,0%);stroke-opacity:1;stroke-miterlimit:10;" d="M 215 147.690625 L 215 149.29375 M 214.4 149.29375 L 215 147.690625 L 215.6 149.29375 " transform="matrix(1.25,0,0,1.25,-208.75,177.5)"/>
<path style="fill:none;stroke-width:1;stroke-linecap:round;stroke-linejoin:round;stroke:rgb(0%,0%,0%);stroke-opacity:1;stroke-dasharray:4,4;stroke-miterlimit:10;" d="M 189.79375 -59.35625 L 239.565625 -59.35625 L 239.565625 7.29375 L 189.79375 7.29375 Z M 189.79375 -59.35625 " transform="matrix(1.25,0,0,1.25,-208.75,177.5)"/>
<path style=" stroke:none;fill-rule:nonzero;fill:rgb(69.803922%,85.098039%,100%);fill-opacity:1;" d="M 34.570312 180.472656 L 85.03125 180.472656 L 85.03125 170.8125 L 34.570312 170.8125 Z M 34.570312 180.472656 "/>
<path style="fill:none;stroke-width:1;stroke-linecap:round;stroke-linejoin:round;stroke:rgb(0%,0%,0%);stroke-opacity:1;stroke-miterlimit:10;" d="M 194.65625 -5.35 L 235.025 -5.35 L 235.025 2.378125 L 194.65625 2.378125 Z M 194.65625 -5.35 " transform="matrix(1.25,0,0,1.25,-208.75,177.5)"/>
<path style="fill:none;stroke-width:1;stroke-linecap:round;stroke-linejoin:round;stroke:rgb(0%,0%,0%);stroke-opacity:1;stroke-miterlimit:10;" d="M 214.840625 14.68125 L 214.840625 5.878125 " transform="matrix(1.25,0,0,1.25,-208.75,177.5)"/>
<path style="fill:none;stroke-width:1;stroke-linecap:butt;stroke-linejoin:miter;stroke:rgb(0%,0%,0%);stroke-opacity:1;stroke-miterlimit:10;" d="M 214.840625 4.278125 L 214.840625 5.878125 M 214.2375 5.878125 L 214.840625 4.278125 L 215.4375 5.878125 " transform="matrix(1.25,0,0,1.25,-208.75,177.5)"/>
<path style="fill-rule:nonzero;fill:rgb(40%,74.901961%,100%);fill-opacity:1;stroke-width:1;stroke-linecap:round;stroke-linejoin:round;stroke:rgb(0%,0%,0%);stroke-opacity:1;stroke-miterlimit:10;" d="M 216.725 -68.725 C 217.859375 -67.59375 217.859375 -65.7625 216.725 -64.628125 C 215.59375 -63.496875 213.7625 -63.496875 212.628125 -64.628125 C 211.496875 -65.7625 211.496875 -67.59375 212.628125 -68.725 C 213.7625 -69.859375 215.59375 -69.859375 216.725 -68.725 " transform="matrix(1.25,0,0,1.25,-208.75,177.5)"/>
<path style=" stroke:none;fill-rule:nonzero;fill:rgb(0%,0%,0%);fill-opacity:1;" d="M 59.511719 95.828125 L 59.511719 94.597656 L 58.300781 94.597656 L 58.300781 94.089844 L 59.511719 94.089844 L 59.511719 92.878906 L 60.039062 92.878906 L 60.039062 94.089844 L 61.25 94.089844 L 61.25 94.597656 L 60.039062 94.597656 L 60.039062 95.828125 Z M 59.511719 95.828125 "/>
<path style="fill:none;stroke-width:1;stroke-linecap:round;stroke-linejoin:round;stroke:rgb(0%,0%,0%);stroke-opacity:1;stroke-miterlimit:10;" d="M 194.65625 -17.63125 L 235.025 -17.63125 L 235.025 -9.90625 L 194.65625 -9.90625 Z M 194.65625 -17.63125 " transform="matrix(1.25,0,0,1.25,-208.75,177.5)"/>
<path style=" stroke:none;fill-rule:nonzero;fill:rgb(40%,74.901961%,100%);fill-opacity:1;" d="M 34.570312 85 L 85.03125 85 L 85.03125 75.335938 L 34.570312 75.335938 Z M 34.570312 85 "/>
<path style="fill:none;stroke-width:1;stroke-linecap:round;stroke-linejoin:round;stroke:rgb(0%,0%,0%);stroke-opacity:1;stroke-miterlimit:10;" d="M 194.65625 -81.73125 L 235.025 -81.73125 L 235.025 -74 L 194.65625 -74 Z M 194.65625 -81.73125 " transform="matrix(1.25,0,0,1.25,-208.75,177.5)"/>
<path style=" stroke:none;fill-rule:nonzero;fill:rgb(40%,74.901961%,100%);fill-opacity:1;" d="M 34.570312 149.765625 L 85.03125 149.765625 L 85.03125 140.101562 L 34.570312 140.101562 Z M 34.570312 149.765625 "/>
<path style="fill:none;stroke-width:1;stroke-linecap:round;stroke-linejoin:round;stroke:rgb(0%,0%,0%);stroke-opacity:1;stroke-miterlimit:10;" d="M 194.65625 -29.91875 L 235.025 -29.91875 L 235.025 -22.1875 L 194.65625 -22.1875 Z M 194.65625 -29.91875 " transform="matrix(1.25,0,0,1.25,-208.75,177.5)"/>
<path style="fill:none;stroke-width:1;stroke-linecap:round;stroke-linejoin:round;stroke:rgb(0%,0%,0%);stroke-opacity:1;stroke-miterlimit:10;" d="M 214.840625 -5.35 L 214.840625 -6.40625 " transform="matrix(1.25,0,0,1.25,-208.75,177.5)"/>
<path style="fill:none;stroke-width:1;stroke-linecap:butt;stroke-linejoin:miter;stroke:rgb(0%,0%,0%);stroke-opacity:1;stroke-miterlimit:10;" d="M 214.840625 -8.003125 L 214.840625 -6.40625 M 214.2375 -6.40625 L 214.840625 -8.003125 L 215.4375 -6.40625 " transform="matrix(1.25,0,0,1.25,-208.75,177.5)"/>
<path style="fill:none;stroke-width:1;stroke-linecap:round;stroke-linejoin:round;stroke:rgb(0%,0%,0%);stroke-opacity:1;stroke-miterlimit:10;" d="M 214.840625 -17.63125 L 214.840625 -18.6875 " transform="matrix(1.25,0,0,1.25,-208.75,177.5)"/>
<path style="fill:none;stroke-width:1;stroke-linecap:butt;stroke-linejoin:miter;stroke:rgb(0%,0%,0%);stroke-opacity:1;stroke-miterlimit:10;" d="M 214.840625 -20.284375 L 214.840625 -18.6875 M 214.2375 -18.6875 L 214.840625 -20.284375 L 215.4375 -18.6875 " transform="matrix(1.25,0,0,1.25,-208.75,177.5)"/>
<path style="fill:none;stroke-width:1;stroke-linecap:round;stroke-linejoin:round;stroke:rgb(0%,0%,0%);stroke-opacity:1;stroke-miterlimit:10;" d="M 214.796875 -55.46875 L 214.746875 -60.28125 " transform="matrix(1.25,0,0,1.25,-208.75,177.5)"/>
<path style="fill:none;stroke-width:1;stroke-linecap:butt;stroke-linejoin:miter;stroke:rgb(0%,0%,0%);stroke-opacity:1;stroke-miterlimit:10;" d="M 214.73125 -61.878125 L 214.746875 -60.28125 M 214.14375 -60.275 L 214.73125 -61.878125 L 215.346875 -60.284375 " transform="matrix(1.25,0,0,1.25,-208.75,177.5)"/>
<path style="fill:none;stroke-width:1;stroke-linecap:round;stroke-linejoin:round;stroke:rgb(0%,0%,0%);stroke-opacity:1;stroke-miterlimit:10;" d="M 214.71875 -69.578125 L 214.734375 -70.5 " transform="matrix(1.25,0,0,1.25,-208.75,177.5)"/>
<path style="fill:none;stroke-width:1;stroke-linecap:butt;stroke-linejoin:miter;stroke:rgb(0%,0%,0%);stroke-opacity:1;stroke-miterlimit:10;" d="M 214.75625 -72.1 L 214.734375 -70.5 M 214.13125 -70.50625 L 214.75625 -72.1 L 215.33125 -70.49375 " transform="matrix(1.25,0,0,1.25,-208.75,177.5)"/>
<path style="fill:none;stroke-width:1;stroke-linecap:round;stroke-linejoin:round;stroke:rgb(0%,0%,0%);stroke-opacity:1;stroke-miterlimit:10;" d="M 214.840625 10.775 L 219.128125 10.775 C 219.13125 10.775 219.1375 10.775 219.140625 10.775 L 243.23125 10.56875 C 243.934375 10.5625 244.503125 9.99375 244.50625 9.284375 L 244.71875 -62.91875 C 244.71875 -62.91875 244.71875 -62.921875 244.71875 -62.921875 L 244.71875 -65.390625 C 244.71875 -66.1 244.140625 -66.68125 243.43125 -66.68125 L 221.078125 -66.68125 " transform="matrix(1.25,0,0,1.25,-208.75,177.5)"/>
<path style="fill:none;stroke-width:1;stroke-linecap:butt;stroke-linejoin:miter;stroke:rgb(0%,0%,0%);stroke-opacity:1;stroke-miterlimit:10;" d="M 219.475 -66.68125 L 221.078125 -66.68125 M 221.078125 -66.078125 L 219.475 -66.68125 L 221.078125 -67.278125 " transform="matrix(1.25,0,0,1.25,-208.75,177.5)"/>
<path style=" stroke:none;fill-rule:nonzero;fill:rgb(69.803922%,85.098039%,100%);fill-opacity:1;" d="M 34.570312 133.179688 L 85.03125 133.179688 L 85.03125 123.515625 L 34.570312 123.515625 Z M 34.570312 133.179688 "/>
<path style="fill:none;stroke-width:1;stroke-linecap:round;stroke-linejoin:round;stroke:rgb(0%,0%,0%);stroke-opacity:1;stroke-miterlimit:10;" d="M 194.65625 -43.1875 L 235.025 -43.1875 L 235.025 -35.45625 L 194.65625 -35.45625 Z M 194.65625 -43.1875 " transform="matrix(1.25,0,0,1.25,-208.75,177.5)"/>
<path style="fill:none;stroke-width:1;stroke-linecap:round;stroke-linejoin:round;stroke:rgb(0%,0%,0%);stroke-opacity:1;stroke-miterlimit:10;" d="M 214.840625 -29.91875 L 214.840625 -31.95625 " transform="matrix(1.25,0,0,1.25,-208.75,177.5)"/>
<path style="fill:none;stroke-width:1;stroke-linecap:butt;stroke-linejoin:miter;stroke:rgb(0%,0%,0%);stroke-opacity:1;stroke-miterlimit:10;" d="M 214.840625 -33.559375 L 214.840625 -31.95625 M 214.2375 -31.95625 L 214.840625 -33.559375 L 215.4375 -31.95625 " transform="matrix(1.25,0,0,1.25,-208.75,177.5)"/>
<path style="fill:none;stroke-width:1;stroke-linecap:round;stroke-linejoin:round;stroke:rgb(0%,0%,0%);stroke-opacity:1;stroke-miterlimit:10;" d="M 194.65625 -55.46875 L 235.025 -55.46875 L 235.025 -47.7375 L 194.65625 -47.7375 Z M 194.65625 -55.46875 " transform="matrix(1.25,0,0,1.25,-208.75,177.5)"/>
<path style="fill:none;stroke-width:1;stroke-linecap:round;stroke-linejoin:round;stroke:rgb(0%,0%,0%);stroke-opacity:1;stroke-miterlimit:10;" d="M 214.840625 -43.1875 L 214.840625 -44.2375 " transform="matrix(1.25,0,0,1.25,-208.75,177.5)"/>
<path style="fill:none;stroke-width:1;stroke-linecap:butt;stroke-linejoin:miter;stroke:rgb(0%,0%,0%);stroke-opacity:1;stroke-miterlimit:10;" d="M 214.840625 -45.840625 L 214.840625 -44.2375 M 214.2375 -44.2375 L 214.840625 -45.840625 L 215.4375 -44.2375 " transform="matrix(1.25,0,0,1.25,-208.75,177.5)"/>
<path style="fill:none;stroke-width:1;stroke-linecap:round;stroke-linejoin:miter;stroke:rgb(0%,0%,0%);stroke-opacity:1;stroke-miterlimit:10;" d="M 304.95 -73.8 L 305.1875 102.425 " transform="matrix(1.25,0,0,1.25,-208.75,177.5)"/>
<path style="fill:none;stroke-width:1;stroke-linecap:butt;stroke-linejoin:miter;stroke:rgb(0%,0%,0%);stroke-opacity:1;stroke-miterlimit:10;" d="M 305.1875 102.425 L 305.2 110.425 M 300.2 110.434375 L 310.2 110.421875 M 303.1875 102.43125 L 305.2 109.425 L 307.1875 102.425 " transform="matrix(1.25,0,0,1.25,-208.75,177.5)"/>
<path style="fill:none;stroke-width:1;stroke-linecap:butt;stroke-linejoin:miter;stroke:rgb(0%,0%,0%);stroke-opacity:1;stroke-miterlimit:10;" d="M 304.95 -73.8 L 305 -81.8 M 310 -81.76875 L 300 -81.83125 M 306.95 -73.7875 L 304.99375 -80.8 L 302.95 -73.8125 " transform="matrix(1.25,0,0,1.25,-208.75,177.5)"/>
<path style=" stroke:none;fill-rule:nonzero;fill:rgb(69.803922%,85.098039%,100%);fill-opacity:1;" d="M 1.25 655.851562 L 118.75 655.851562 L 118.75 633.351562 L 1.25 633.351562 Z M 1.25 655.851562 "/>
<path style="fill:none;stroke-width:1;stroke-linecap:round;stroke-linejoin:round;stroke:rgb(0%,0%,0%);stroke-opacity:1;stroke-miterlimit:10;" d="M 168 364.68125 L 262 364.68125 L 262 382.68125 L 168 382.68125 Z M 168 364.68125 " transform="matrix(1.25,0,0,1.25,-208.75,177.5)"/>
<path style=" stroke:none;fill-rule:nonzero;fill:rgb(0%,0%,0%);fill-opacity:1;" d="M 29.582031 641.980469 L 29.582031 641.023438 L 34.796875 641.023438 L 34.796875 641.785156 C 34.289062 642.332031 33.78125 643.066406 33.273438 643.972656 C 32.765625 644.871094 32.375 645.804688 32.101562 646.765625 C 31.90625 647.429688 31.78125 648.167969 31.730469 648.972656 L 30.714844 648.972656 C 30.726562 648.339844 30.851562 647.578125 31.085938 646.6875 C 31.320312 645.789062 31.65625 644.925781 32.101562 644.089844 C 32.554688 643.261719 33.03125 642.558594 33.527344 641.980469 Z M 29.582031 641.980469 "/>
<g clip-path="url(#clip1)" clip-rule="nonzero">
<path style=" stroke:none;fill-rule:nonzero;fill:rgb(0%,0%,0%);fill-opacity:1;" d="M 41.703125 645.832031 L 43.929688 643.605469 C 44.046875 643.46875 44.085938 643.449219 44.085938 643.371094 C 44.085938 643.234375 43.96875 643.136719 43.851562 643.136719 C 43.773438 643.136719 43.714844 643.175781 43.617188 643.292969 L 41.371094 645.519531 L 39.125 643.292969 C 39.007812 643.15625 38.96875 643.136719 38.890625 643.136719 C 38.773438 643.136719 38.65625 643.234375 38.65625 643.371094 C 38.65625 643.449219 38.714844 643.507812 38.8125 643.605469 L 41.039062 645.832031 L 38.8125 648.078125 C 38.695312 648.175781 38.65625 648.253906 38.65625 648.3125 C 38.65625 648.449219 38.773438 648.546875 38.890625 648.546875 C 38.96875 648.546875 39.007812 648.527344 39.125 648.390625 L 41.371094 646.164062 L 43.617188 648.390625 C 43.714844 648.507812 43.792969 648.546875 43.851562 648.546875 C 43.988281 648.546875 44.085938 648.449219 44.085938 648.3125 C 44.085938 648.234375 44.046875 648.214844 43.929688 648.078125 Z M 41.703125 645.832031 "/>
<path style=" stroke:none;fill-rule:nonzero;fill:rgb(0%,0%,0%);fill-opacity:1;" d="M 41.703125 645.832031 L 43.929688 643.605469 C 44.046875 643.46875 44.085938 643.449219 44.085938 643.371094 C 44.085938 643.234375 43.96875 643.136719 43.851562 643.136719 C 43.773438 643.136719 43.714844 643.175781 43.617188 643.292969 L 41.371094 645.519531 L 39.125 643.292969 C 39.007812 643.15625 38.96875 643.136719 38.890625 643.136719 C 38.773438 643.136719 38.65625 643.234375 38.65625 643.371094 C 38.65625 643.449219 38.714844 643.507812 38.8125 643.605469 L 41.039062 645.832031 L 38.8125 648.078125 C 38.695312 648.175781 38.65625 648.253906 38.65625 648.3125 C 38.65625 648.449219 38.773438 648.546875 38.890625 648.546875 C 38.96875 648.546875 39.007812 648.527344 39.125 648.390625 L 41.371094 646.164062 L 43.617188 648.390625 C 43.714844 648.507812 43.792969 648.546875 43.851562 648.546875 C 43.988281 648.546875 44.085938 648.449219 44.085938 648.3125 C 44.085938 648.234375 44.046875 648.214844 43.929688 648.078125 Z M 41.703125 645.832031 "/>
</g>
<path style=" stroke:none;fill-rule:nonzero;fill:rgb(0%,0%,0%);fill-opacity:1;" d="M 48.339844 641.980469 L 48.339844 641.023438 L 53.554688 641.023438 L 53.554688 641.785156 C 53.046875 642.332031 52.539062 643.066406 52.03125 643.972656 C 51.523438 644.871094 51.132812 645.804688 50.859375 646.765625 C 50.664062 647.429688 50.539062 648.167969 50.488281 648.972656 L 49.472656 648.972656 C 49.484375 648.339844 49.609375 647.578125 49.84375 646.6875 C 50.078125 645.789062 50.414062 644.925781 50.859375 644.089844 C 51.3125 643.261719 51.789062 642.558594 52.285156 641.980469 Z M 48.339844 641.980469 "/>
<path style=" stroke:none;fill-rule:nonzero;fill:rgb(0%,0%,0%);fill-opacity:1;" d="M 60.144531 639.929688 L 59.421875 640.183594 C 59.753906 640.632812 60.066406 641.160156 60.359375 641.746094 L 61.042969 641.433594 C 60.789062 640.90625 60.496094 640.417969 60.144531 639.929688 Z M 65.671875 639.929688 C 65.398438 640.496094 65.066406 640.984375 64.636719 641.394531 L 65.28125 641.765625 C 65.730469 641.316406 66.101562 640.789062 66.394531 640.203125 Z M 58.640625 641.824219 L 58.640625 642.566406 L 61.902344 642.566406 C 61.726562 642.957031 61.492188 643.347656 61.238281 643.699219 L 57.996094 643.699219 L 57.996094 644.441406 L 60.671875 644.441406 C 59.890625 645.320312 58.894531 646.042969 57.683594 646.570312 L 58.132812 647.273438 C 58.875 646.921875 59.558594 646.492188 60.164062 646.003906 L 60.164062 649.070312 C 60.164062 649.65625 60.496094 649.949219 61.179688 649.949219 L 65.339844 649.949219 C 65.945312 649.949219 66.335938 649.851562 66.570312 649.695312 C 66.804688 649.480469 66.960938 648.933594 67.058594 648.054688 L 66.257812 647.800781 C 66.199219 648.367188 66.101562 648.738281 65.984375 648.953125 C 65.886719 649.109375 65.59375 649.207031 65.125 649.207031 L 61.511719 649.207031 C 61.160156 649.207031 60.984375 649.070312 60.984375 648.816406 L 60.984375 646.277344 L 64.597656 646.277344 L 64.597656 647.117188 C 64.597656 647.351562 64.441406 647.46875 64.148438 647.46875 C 63.679688 647.46875 63.171875 647.449219 62.605469 647.429688 L 62.78125 648.132812 C 63.328125 648.152344 63.875 648.171875 64.460938 648.171875 C 65.066406 648.132812 65.378906 647.859375 65.398438 647.332031 L 65.398438 645.808594 C 65.964844 646.277344 66.648438 646.726562 67.449219 647.15625 L 67.976562 646.492188 C 66.609375 645.886719 65.59375 645.222656 64.988281 644.441406 L 67.644531 644.441406 L 67.644531 643.699219 L 62.175781 643.699219 C 62.390625 643.347656 62.566406 642.957031 62.761719 642.566406 L 67.019531 642.566406 L 67.019531 641.824219 L 63.035156 641.824219 C 63.230469 641.21875 63.40625 640.554688 63.523438 639.851562 L 62.722656 639.753906 C 62.605469 640.496094 62.429688 641.179688 62.214844 641.824219 Z M 61.667969 644.441406 L 64.167969 644.441406 C 64.421875 644.832031 64.734375 645.203125 65.125 645.554688 L 60.671875 645.554688 C 61.023438 645.222656 61.355469 644.851562 61.667969 644.441406 Z M 61.667969 644.441406 "/>
<path style=" stroke:none;fill-rule:nonzero;fill:rgb(0%,0%,0%);fill-opacity:1;" d="M 69.304688 641.511719 C 69.851562 641.453125 70.359375 641.355469 70.847656 641.257812 L 70.847656 642.859375 L 69.1875 642.859375 L 69.1875 643.640625 L 70.808594 643.640625 C 70.417969 644.949219 69.753906 646.101562 68.855469 647.117188 L 69.1875 647.957031 C 69.871094 647.078125 70.417969 646.0625 70.847656 644.96875 L 70.847656 650.046875 L 71.609375 650.046875 L 71.609375 644.910156 C 71.941406 645.359375 72.332031 645.984375 72.800781 646.765625 L 73.25 646.101562 C 72.683594 645.398438 72.15625 644.773438 71.609375 644.207031 L 71.609375 643.640625 L 72.996094 643.640625 L 72.996094 642.859375 L 71.609375 642.859375 L 71.609375 641.082031 C 72.078125 640.964844 72.527344 640.847656 72.9375 640.691406 L 72.644531 639.929688 C 71.648438 640.339844 70.476562 640.59375 69.148438 640.730469 Z M 73.660156 640.457031 L 73.660156 645.691406 L 78.523438 645.691406 L 78.523438 640.457031 Z M 77.722656 644.929688 L 74.480469 644.929688 L 74.480469 641.238281 L 77.722656 641.238281 Z M 74.636719 646.414062 C 74.128906 647.664062 73.503906 648.738281 72.78125 649.636719 L 73.464844 650.125 C 74.1875 649.167969 74.832031 648.054688 75.359375 646.765625 Z M 77.390625 646.355469 L 76.746094 646.765625 C 77.527344 647.976562 78.171875 649.089844 78.640625 650.105469 L 79.324219 649.617188 C 78.875 648.699219 78.230469 647.605469 77.390625 646.355469 Z M 77.390625 646.355469 "/>
<path style=" stroke:none;fill-rule:nonzero;fill:rgb(0%,0%,0%);fill-opacity:1;" d="M 83.347656 644.089844 L 83.347656 644.8125 L 89.441406 644.8125 L 89.441406 644.089844 Z M 82.546875 645.925781 L 82.546875 646.667969 L 85.007812 646.667969 C 84.226562 647.9375 83.5625 648.71875 83.074219 649.011719 C 83.015625 649.03125 82.976562 649.070312 82.898438 649.089844 L 83.074219 649.773438 C 85.203125 649.636719 87.15625 649.441406 88.933594 649.207031 C 89.167969 649.480469 89.363281 649.773438 89.558594 650.066406 L 90.203125 649.617188 C 89.714844 648.894531 88.992188 648.035156 88.074219 647.058594 L 87.46875 647.429688 C 87.800781 647.820312 88.132812 648.191406 88.445312 648.5625 C 87 648.777344 85.535156 648.933594 84.050781 649.03125 C 84.578125 648.5625 85.183594 647.761719 85.867188 646.667969 L 90.183594 646.667969 L 90.183594 645.925781 Z M 88.816406 640.984375 L 88.816406 642.292969 L 82.195312 642.292969 L 82.195312 640.984375 Z M 82.195312 643.015625 L 89.597656 643.015625 L 89.597656 640.222656 L 81.414062 640.222656 L 81.414062 643.953125 C 81.394531 646.21875 81.003906 648.054688 80.222656 649.480469 L 80.808594 650.027344 C 81.726562 648.328125 82.195312 646.296875 82.195312 643.953125 Z M 82.195312 643.015625 "/>
<path style="fill:none;stroke-width:1;stroke-linecap:round;stroke-linejoin:round;stroke:rgb(0%,0%,0%);stroke-opacity:1;stroke-miterlimit:10;" d="M 168 336.078125 L 262 336.078125 L 262 354.078125 L 168 354.078125 Z M 168 336.078125 " transform="matrix(1.25,0,0,1.25,-208.75,177.5)"/>
<path style=" stroke:none;fill-rule:nonzero;fill:rgb(0%,0%,0%);fill-opacity:1;" d="M 30.078125 608.945312 C 29.707031 609.101562 29.355469 609.257812 28.984375 609.394531 L 28.984375 606.894531 L 30.097656 606.894531 L 30.097656 606.113281 L 28.984375 606.113281 L 28.984375 604.023438 L 28.203125 604.023438 L 28.203125 606.113281 L 26.933594 606.113281 L 26.933594 606.894531 L 28.203125 606.894531 L 28.203125 609.648438 C 27.734375 609.785156 27.265625 609.902344 26.796875 610 L 26.972656 610.761719 C 27.382812 610.664062 27.792969 610.546875 28.203125 610.429688 L 28.203125 613.105469 C 28.203125 613.398438 28.066406 613.535156 27.792969 613.535156 C 27.519531 613.535156 27.226562 613.515625 26.933594 613.476562 L 27.089844 614.277344 L 28.066406 614.277344 C 28.671875 614.277344 28.984375 613.945312 28.984375 613.300781 L 28.984375 610.15625 C 29.335938 610.019531 29.707031 609.863281 30.078125 609.707031 Z M 31.425781 608.164062 L 33.007812 608.164062 L 33.007812 607.382812 L 31.425781 607.382812 L 31.425781 604.140625 L 30.625 604.140625 L 30.625 612.96875 C 30.625 613.203125 30.507812 613.378906 30.253906 613.457031 L 30.449219 614.21875 C 31.425781 613.984375 32.285156 613.710938 33.046875 613.398438 L 32.890625 612.65625 C 32.441406 612.871094 31.972656 613.046875 31.425781 613.183594 Z M 35.46875 614.199219 C 35.917969 614.199219 36.230469 614.0625 36.445312 613.847656 C 36.679688 613.574219 36.835938 612.832031 36.914062 611.582031 L 36.171875 611.347656 C 36.132812 612.363281 36.035156 612.96875 35.898438 613.183594 C 35.78125 613.339844 35.605469 613.417969 35.332031 613.417969 L 34.785156 613.417969 C 34.492188 613.417969 34.355469 613.261719 34.355469 612.96875 L 34.355469 608.28125 C 35.117188 608.027344 35.9375 607.65625 36.796875 607.1875 L 36.328125 606.523438 C 35.683594 606.914062 35.019531 607.246094 34.355469 607.460938 L 34.355469 604.0625 L 33.554688 604.0625 L 33.554688 613.125 C 33.554688 613.828125 33.886719 614.199219 34.53125 614.199219 Z M 35.46875 614.199219 "/>
<path style=" stroke:none;fill-rule:nonzero;fill:rgb(0%,0%,0%);fill-opacity:1;" d="M 39.21875 608.75 L 39.21875 611.621094 L 42.714844 611.621094 L 42.714844 612.246094 L 38.945312 612.246094 L 38.945312 612.792969 L 42.714844 612.792969 L 42.714844 613.457031 L 38.105469 613.457031 L 38.105469 614.082031 L 48.144531 614.082031 L 48.144531 613.457031 L 43.515625 613.457031 L 43.515625 612.792969 L 47.324219 612.792969 L 47.324219 612.246094 L 43.515625 612.246094 L 43.515625 611.621094 L 47.050781 611.621094 L 47.050781 608.75 Z M 46.269531 611.113281 L 43.515625 611.113281 L 43.515625 610.429688 L 46.269531 610.429688 Z M 42.714844 611.113281 L 40 611.113281 L 40 610.429688 L 42.714844 610.429688 Z M 40 609.941406 L 40 609.257812 L 42.714844 609.257812 L 42.714844 609.941406 Z M 43.515625 609.257812 L 46.269531 609.257812 L 46.269531 609.941406 L 43.515625 609.941406 Z M 39.472656 604.21875 L 39.472656 606.992188 L 46.816406 606.992188 L 46.816406 604.21875 Z M 46.035156 606.503906 L 40.253906 606.503906 L 40.253906 605.839844 L 46.035156 605.839844 Z M 40.253906 605.351562 L 40.253906 604.707031 L 46.035156 604.707031 L 46.035156 605.351562 Z M 38.085938 607.578125 L 38.085938 608.183594 L 48.164062 608.183594 L 48.164062 607.578125 Z M 38.085938 607.578125 "/>
<path style=" stroke:none;fill-rule:nonzero;fill:rgb(0%,0%,0%);fill-opacity:1;" d="M 49.550781 605.664062 L 49.550781 606.445312 L 51.152344 606.445312 L 51.152344 608.300781 L 49.394531 608.300781 L 49.394531 609.082031 L 51.113281 609.082031 C 50.957031 611.210938 50.332031 612.792969 49.238281 613.847656 L 49.84375 614.375 C 50.761719 613.496094 51.386719 612.246094 51.699219 610.664062 C 52.148438 611.152344 52.695312 611.816406 53.320312 612.675781 L 53.769531 611.972656 C 53.105469 611.210938 52.460938 610.527344 51.835938 609.921875 C 51.875 609.648438 51.894531 609.375 51.914062 609.082031 L 53.613281 609.082031 L 53.613281 608.300781 L 51.972656 608.300781 L 51.972656 606.445312 L 53.457031 606.445312 L 53.457031 605.664062 L 51.972656 605.664062 L 51.972656 604.121094 L 51.152344 604.121094 L 51.152344 605.664062 Z M 58.691406 604.511719 L 54.121094 604.511719 L 54.121094 610.683594 L 54.902344 610.683594 L 54.902344 605.253906 L 57.910156 605.253906 L 57.910156 610.683594 L 58.691406 610.683594 Z M 58.378906 614.199219 C 58.730469 614.199219 59.003906 614.121094 59.179688 613.945312 C 59.355469 613.730469 59.492188 613.183594 59.570312 612.246094 L 58.867188 612.03125 C 58.828125 612.734375 58.75 613.164062 58.652344 613.300781 C 58.574219 613.417969 58.4375 613.476562 58.242188 613.476562 L 57.675781 613.476562 C 57.421875 613.476562 57.304688 613.339844 57.304688 613.105469 L 57.304688 610.742188 L 56.582031 610.742188 L 56.582031 613.261719 C 56.582031 613.886719 56.855469 614.199219 57.441406 614.199219 Z M 56.035156 606.191406 L 56.035156 608.183594 C 56.015625 609.609375 55.761719 610.761719 55.292969 611.640625 C 54.804688 612.5 53.945312 613.183594 52.695312 613.691406 L 53.125 614.375 C 54.394531 613.847656 55.3125 613.125 55.878906 612.207031 C 56.445312 611.191406 56.757812 609.863281 56.777344 608.183594 L 56.777344 606.191406 Z M 56.035156 606.191406 "/>
<path style=" stroke:none;fill-rule:nonzero;fill:rgb(0%,0%,0%);fill-opacity:1;" d="M 60.683594 605.039062 L 60.683594 605.78125 L 63.320312 605.78125 L 63.320312 606.855469 L 64.160156 606.855469 L 64.160156 605.78125 L 67.089844 605.78125 L 67.089844 606.855469 L 67.929688 606.855469 L 67.929688 605.78125 L 70.566406 605.78125 L 70.566406 605.039062 L 67.929688 605.039062 L 67.929688 604.023438 L 67.089844 604.023438 L 67.089844 605.039062 L 64.160156 605.039062 L 64.160156 604.023438 L 63.320312 604.023438 L 63.320312 605.039062 Z M 62.128906 606.738281 L 61.582031 607.265625 C 62.34375 607.792969 62.929688 608.300781 63.359375 608.769531 L 63.90625 608.222656 C 63.4375 607.734375 62.851562 607.246094 62.128906 606.738281 Z M 61.425781 608.652344 L 60.878906 609.179688 C 61.640625 609.707031 62.226562 610.195312 62.65625 610.664062 L 63.203125 610.117188 C 62.714844 609.628906 62.128906 609.140625 61.425781 608.652344 Z M 62.753906 611.09375 C 62.324219 612.050781 61.738281 613.046875 61.015625 614.023438 L 61.757812 614.433594 C 62.460938 613.457031 63.007812 612.441406 63.4375 611.40625 Z M 68.808594 607.96875 L 68.808594 610.078125 C 68.808594 610.351562 68.652344 610.488281 68.359375 610.488281 C 67.949219 610.488281 67.519531 610.46875 67.03125 610.429688 L 67.226562 611.191406 C 67.675781 611.210938 68.164062 611.230469 68.652344 611.230469 C 69.277344 611.210938 69.589844 610.898438 69.609375 610.3125 L 69.609375 607.246094 L 64.726562 607.246094 L 64.726562 613.085938 C 64.726562 613.789062 65.097656 614.140625 65.820312 614.140625 L 68.847656 614.140625 C 69.433594 614.140625 69.824219 614.042969 70.039062 613.847656 C 70.253906 613.59375 70.410156 612.929688 70.507812 611.855469 L 69.726562 611.601562 C 69.667969 612.324219 69.589844 612.8125 69.453125 613.046875 C 69.355469 613.261719 69.082031 613.378906 68.632812 613.378906 L 66.132812 613.378906 C 65.742188 613.378906 65.566406 613.183594 65.566406 612.8125 L 65.566406 607.96875 Z M 68.808594 607.96875 "/>
<path style=" stroke:none;fill-rule:nonzero;fill:rgb(0%,0%,0%);fill-opacity:1;" d="M 75.15625 603.945312 C 74.433594 605.722656 73.28125 607.304688 71.679688 608.671875 L 71.933594 609.511719 C 72.539062 609.023438 73.085938 608.496094 73.59375 607.949219 L 73.59375 614.375 L 74.394531 614.375 L 74.394531 606.953125 C 75 606.132812 75.507812 605.253906 75.898438 604.296875 Z M 80.332031 614.160156 C 80.878906 614.160156 81.25 614.023438 81.445312 613.769531 C 81.640625 613.496094 81.777344 612.714844 81.855469 611.40625 L 81.113281 611.171875 C 81.054688 612.285156 80.976562 612.929688 80.859375 613.105469 C 80.722656 613.28125 80.488281 613.398438 80.195312 613.398438 L 78.378906 613.398438 C 78.007812 613.398438 77.8125 613.203125 77.8125 612.871094 L 77.8125 609.0625 C 79.21875 608.183594 80.449219 607.1875 81.484375 606.054688 L 80.917969 605.410156 C 80.039062 606.425781 79.003906 607.324219 77.8125 608.105469 L 77.8125 604.082031 L 77.011719 604.082031 L 77.011719 608.59375 C 76.445312 608.945312 75.820312 609.238281 75.195312 609.53125 L 75.566406 610.292969 C 76.054688 610.058594 76.542969 609.804688 77.011719 609.550781 L 77.011719 612.96875 C 77.011719 613.769531 77.402344 614.160156 78.183594 614.160156 Z M 80.332031 614.160156 "/>
<path style=" stroke:none;fill-rule:nonzero;fill:rgb(0%,0%,0%);fill-opacity:1;" d="M 86.152344 608.339844 L 86.152344 609.0625 L 92.246094 609.0625 L 92.246094 608.339844 Z M 85.351562 610.175781 L 85.351562 610.917969 L 87.8125 610.917969 C 87.03125 612.1875 86.367188 612.96875 85.878906 613.261719 C 85.820312 613.28125 85.78125 613.320312 85.703125 613.339844 L 85.878906 614.023438 C 88.007812 613.886719 89.960938 613.691406 91.738281 613.457031 C 91.972656 613.730469 92.167969 614.023438 92.363281 614.316406 L 93.007812 613.867188 C 92.519531 613.144531 91.796875 612.285156 90.878906 611.308594 L 90.273438 611.679688 C 90.605469 612.070312 90.9375 612.441406 91.25 612.8125 C 89.804688 613.027344 88.339844 613.183594 86.855469 613.28125 C 87.382812 612.8125 87.988281 612.011719 88.671875 610.917969 L 92.988281 610.917969 L 92.988281 610.175781 Z M 91.621094 605.234375 L 91.621094 606.542969 L 85 606.542969 L 85 605.234375 Z M 85 607.265625 L 92.402344 607.265625 L 92.402344 604.472656 L 84.21875 604.472656 L 84.21875 608.203125 C 84.199219 610.46875 83.808594 612.304688 83.027344 613.730469 L 83.613281 614.277344 C 84.53125 612.578125 85 610.546875 85 608.203125 Z M 85 607.265625 "/>
<path style=" stroke:none;fill-rule:nonzero;fill:rgb(40%,74.901961%,100%);fill-opacity:1;" d="M 1.25 584.34375 L 118.75 584.34375 L 118.75 561.84375 L 1.25 561.84375 Z M 1.25 584.34375 "/>
<path style="fill:none;stroke-width:1;stroke-linecap:round;stroke-linejoin:round;stroke:rgb(0%,0%,0%);stroke-opacity:1;stroke-miterlimit:10;" d="M 168 307.475 L 262 307.475 L 262 325.475 L 168 325.475 Z M 168 307.475 " transform="matrix(1.25,0,0,1.25,-208.75,177.5)"/>
<path style=" stroke:none;fill-rule:nonzero;fill:rgb(0%,0%,0%);fill-opacity:1;" d="M 18.273438 575.34375 L 19.269531 575.207031 C 19.386719 575.769531 19.574219 576.175781 19.835938 576.417969 C 20.109375 576.667969 20.445312 576.789062 20.851562 576.789062 C 21.304688 576.789062 21.691406 576.632812 22.003906 576.320312 C 22.328125 576 22.492188 575.59375 22.492188 575.109375 C 22.492188 574.65625 22.339844 574.285156 22.042969 573.996094 C 21.753906 573.699219 21.382812 573.546875 20.929688 573.546875 C 20.734375 573.546875 20.5 573.585938 20.226562 573.664062 L 20.34375 572.785156 C 20.40625 572.800781 20.460938 572.804688 20.5 572.804688 C 20.914062 572.804688 21.292969 572.699219 21.632812 572.472656 C 21.96875 572.253906 22.140625 571.917969 22.140625 571.457031 C 22.140625 571.097656 22.015625 570.792969 21.769531 570.558594 C 21.519531 570.324219 21.203125 570.207031 20.8125 570.207031 C 20.433594 570.207031 20.113281 570.335938 19.855469 570.578125 C 19.605469 570.8125 19.445312 571.175781 19.367188 571.652344 L 18.371094 571.476562 C 18.5 570.8125 18.773438 570.300781 19.191406 569.933594 C 19.621094 569.574219 20.152344 569.386719 20.792969 569.386719 C 21.234375 569.386719 21.636719 569.484375 22.003906 569.679688 C 22.378906 569.867188 22.667969 570.121094 22.863281 570.441406 C 23.058594 570.769531 23.15625 571.117188 23.15625 571.476562 C 23.15625 571.828125 23.058594 572.152344 22.863281 572.433594 C 22.679688 572.722656 22.40625 572.953125 22.042969 573.117188 C 22.523438 573.226562 22.894531 573.449219 23.15625 573.800781 C 23.414062 574.144531 23.546875 574.574219 23.546875 575.089844 C 23.546875 575.792969 23.285156 576.394531 22.765625 576.886719 C 22.257812 577.371094 21.613281 577.609375 20.832031 577.609375 C 20.128906 577.609375 19.542969 577.40625 19.074219 576.984375 C 18.605469 576.570312 18.335938 576.023438 18.273438 575.34375 Z M 18.273438 575.34375 "/>
<g clip-path="url(#clip2)" clip-rule="nonzero">
<path style=" stroke:none;fill-rule:nonzero;fill:rgb(0%,0%,0%);fill-opacity:1;" d="M 30.453125 574.359375 L 32.679688 572.132812 C 32.796875 571.996094 32.835938 571.976562 32.835938 571.898438 C 32.835938 571.761719 32.71875 571.664062 32.601562 571.664062 C 32.523438 571.664062 32.464844 571.703125 32.367188 571.820312 L 30.121094 574.046875 L 27.875 571.820312 C 27.757812 571.683594 27.71875 571.664062 27.640625 571.664062 C 27.523438 571.664062 27.40625 571.761719 27.40625 571.898438 C 27.40625 571.976562 27.464844 572.035156 27.5625 572.132812 L 29.789062 574.359375 L 27.5625 576.605469 C 27.445312 576.703125 27.40625 576.78125 27.40625 576.839844 C 27.40625 576.976562 27.523438 577.074219 27.640625 577.074219 C 27.71875 577.074219 27.757812 577.054688 27.875 576.917969 L 30.121094 574.691406 L 32.367188 576.917969 C 32.464844 577.035156 32.542969 577.074219 32.601562 577.074219 C 32.738281 577.074219 32.835938 576.976562 32.835938 576.839844 C 32.835938 576.761719 32.796875 576.742188 32.679688 576.605469 Z M 30.453125 574.359375 "/>
<path style=" stroke:none;fill-rule:nonzero;fill:rgb(0%,0%,0%);fill-opacity:1;" d="M 30.453125 574.359375 L 32.679688 572.132812 C 32.796875 571.996094 32.835938 571.976562 32.835938 571.898438 C 32.835938 571.761719 32.71875 571.664062 32.601562 571.664062 C 32.523438 571.664062 32.464844 571.703125 32.367188 571.820312 L 30.121094 574.046875 L 27.875 571.820312 C 27.757812 571.683594 27.71875 571.664062 27.640625 571.664062 C 27.523438 571.664062 27.40625 571.761719 27.40625 571.898438 C 27.40625 571.976562 27.464844 572.035156 27.5625 572.132812 L 29.789062 574.359375 L 27.5625 576.605469 C 27.445312 576.703125 27.40625 576.78125 27.40625 576.839844 C 27.40625 576.976562 27.523438 577.074219 27.640625 577.074219 C 27.71875 577.074219 27.757812 577.054688 27.875 576.917969 L 30.121094 574.691406 L 32.367188 576.917969 C 32.464844 577.035156 32.542969 577.074219 32.601562 577.074219 C 32.738281 577.074219 32.835938 576.976562 32.835938 576.839844 C 32.835938 576.761719 32.796875 576.742188 32.679688 576.605469 Z M 30.453125 574.359375 "/>
</g>
<path style=" stroke:none;fill-rule:nonzero;fill:rgb(0%,0%,0%);fill-opacity:1;" d="M 37.03125 575.34375 L 38.027344 575.207031 C 38.144531 575.769531 38.328125 576.175781 38.59375 576.417969 C 38.867188 576.667969 39.203125 576.789062 39.609375 576.789062 C 40.0625 576.789062 40.449219 576.632812 40.761719 576.320312 C 41.085938 576 41.25 575.59375 41.25 575.109375 C 41.25 574.65625 41.097656 574.285156 40.800781 573.996094 C 40.511719 573.699219 40.140625 573.546875 39.6875 573.546875 C 39.492188 573.546875 39.257812 573.585938 38.984375 573.664062 L 39.101562 572.785156 C 39.164062 572.800781 39.21875 572.804688 39.257812 572.804688 C 39.671875 572.804688 40.046875 572.699219 40.390625 572.472656 C 40.726562 572.253906 40.898438 571.917969 40.898438 571.457031 C 40.898438 571.097656 40.773438 570.792969 40.527344 570.558594 C 40.277344 570.324219 39.960938 570.207031 39.570312 570.207031 C 39.1875 570.207031 38.871094 570.335938 38.613281 570.578125 C 38.363281 570.8125 38.203125 571.175781 38.125 571.652344 L 37.128906 571.476562 C 37.257812 570.8125 37.53125 570.300781 37.949219 569.933594 C 38.378906 569.574219 38.910156 569.386719 39.550781 569.386719 C 39.992188 569.386719 40.394531 569.484375 40.761719 569.679688 C 41.136719 569.867188 41.425781 570.121094 41.621094 570.441406 C 41.816406 570.769531 41.914062 571.117188 41.914062 571.476562 C 41.914062 571.828125 41.816406 572.152344 41.621094 572.433594 C 41.4375 572.722656 41.164062 572.953125 40.800781 573.117188 C 41.28125 573.226562 41.648438 573.449219 41.914062 573.800781 C 42.171875 574.144531 42.304688 574.574219 42.304688 575.089844 C 42.304688 575.792969 42.039062 576.394531 41.523438 576.886719 C 41.015625 577.371094 40.371094 577.609375 39.589844 577.609375 C 38.886719 577.609375 38.300781 577.40625 37.832031 576.984375 C 37.363281 576.570312 37.09375 576.023438 37.03125 575.34375 Z M 37.03125 575.34375 "/>
<path style=" stroke:none;fill-rule:nonzero;fill:rgb(0%,0%,0%);fill-opacity:1;" d="M 46.628906 572.667969 L 46.628906 573.3125 L 47.703125 573.3125 L 47.703125 577.21875 L 46.648438 577.257812 L 46.746094 577.960938 C 48.328125 577.863281 49.636719 577.746094 50.710938 577.628906 L 50.710938 578.625 L 51.492188 578.625 L 51.492188 577.53125 C 51.707031 577.492188 51.941406 577.453125 52.136719 577.414062 L 52.136719 576.769531 C 51.941406 576.808594 51.707031 576.847656 51.492188 576.867188 L 51.492188 573.3125 L 56.550781 573.3125 L 56.550781 572.667969 Z M 48.425781 577.179688 L 48.425781 576.203125 L 50.710938 576.203125 L 50.710938 576.984375 C 50.027344 577.0625 49.265625 577.121094 48.425781 577.179688 Z M 48.425781 575.617188 L 48.425781 574.777344 L 50.710938 574.777344 L 50.710938 575.617188 Z M 48.425781 574.171875 L 48.425781 573.3125 L 50.710938 573.3125 L 50.710938 574.171875 Z M 48.054688 568.683594 L 48.054688 571.925781 L 55.164062 571.925781 L 55.164062 568.683594 Z M 54.382812 571.339844 L 48.816406 571.339844 L 48.816406 570.578125 L 54.382812 570.578125 Z M 48.816406 570.011719 L 48.816406 569.289062 L 54.382812 569.289062 L 54.382812 570.011719 Z M 52.429688 574.738281 C 52.664062 575.558594 53.074219 576.300781 53.699219 576.945312 C 53.230469 577.355469 52.644531 577.6875 51.960938 577.980469 L 52.371094 578.605469 C 53.113281 578.292969 53.738281 577.902344 54.265625 577.453125 C 54.773438 577.882812 55.398438 578.253906 56.140625 578.605469 L 56.550781 577.941406 C 55.847656 577.648438 55.28125 577.316406 54.773438 576.945312 C 55.320312 576.320312 55.691406 575.578125 55.90625 574.699219 L 55.90625 574.074219 L 52.078125 574.074219 L 52.078125 574.738281 Z M 54.207031 576.457031 C 53.679688 575.949219 53.328125 575.382812 53.132812 574.738281 L 55.183594 574.738281 C 54.988281 575.363281 54.65625 575.949219 54.207031 576.457031 Z M 54.207031 576.457031 "/>
<path style=" stroke:none;fill-rule:nonzero;fill:rgb(0%,0%,0%);fill-opacity:1;" d="M 57.878906 571.242188 L 57.878906 572.023438 L 62.117188 572.023438 C 61.53125 574.796875 60.046875 576.769531 57.664062 577.960938 L 58.171875 578.625 C 60.554688 577.375 62.117188 575.382812 62.800781 572.648438 C 63.660156 575.207031 65.203125 577.160156 67.46875 578.546875 L 67.976562 577.902344 C 65.671875 576.535156 64.109375 574.5625 63.328125 572.023438 L 67.761719 572.023438 L 67.761719 571.242188 L 63.09375 571.242188 C 63.171875 570.539062 63.230469 569.816406 63.230469 569.015625 L 63.230469 568.292969 L 62.410156 568.292969 L 62.410156 569.210938 C 62.390625 569.914062 62.351562 570.578125 62.253906 571.242188 Z M 57.878906 571.242188 "/>
<path style=" stroke:none;fill-rule:nonzero;fill:rgb(0%,0%,0%);fill-opacity:1;" d="M 73.601562 577.394531 L 73.601562 569.542969 L 78.953125 569.542969 L 78.953125 568.761719 L 72.78125 568.761719 L 72.78125 578.214844 L 79.050781 578.214844 L 79.050781 577.394531 Z M 69.8125 568.488281 L 69.246094 569.054688 C 70.183594 569.660156 70.90625 570.226562 71.414062 570.773438 L 71.980469 570.1875 C 71.394531 569.640625 70.691406 569.054688 69.8125 568.488281 Z M 69.597656 571.242188 L 69.011719 571.808594 C 69.890625 572.394531 70.554688 572.941406 71.0625 573.46875 L 71.648438 572.882812 C 71.082031 572.335938 70.398438 571.789062 69.597656 571.242188 Z M 70.925781 574.5625 C 70.4375 575.792969 69.832031 577.003906 69.167969 578.175781 L 69.988281 578.546875 C 70.613281 577.414062 71.160156 576.164062 71.6875 574.855469 Z M 70.925781 574.5625 "/>
<path style=" stroke:none;fill-rule:nonzero;fill:rgb(0%,0%,0%);fill-opacity:1;" d="M 84.988281 574.679688 L 84.988281 578.566406 L 85.730469 578.566406 L 85.730469 574.601562 L 86.335938 574.503906 C 86.765625 576.183594 87.9375 577.511719 89.851562 578.488281 L 90.261719 577.804688 C 89.402344 577.414062 88.679688 576.945312 88.132812 576.398438 C 88.777344 576.007812 89.324219 575.636719 89.734375 575.265625 L 89.304688 574.699219 C 88.875 575.109375 88.328125 575.5 87.683594 575.890625 C 87.351562 575.441406 87.097656 574.933594 86.960938 574.386719 C 87.722656 574.230469 88.425781 574.035156 89.070312 573.78125 L 88.699219 573.15625 C 86.746094 573.820312 84.246094 574.171875 81.257812 574.171875 L 81.492188 574.855469 C 82.761719 574.855469 83.933594 574.796875 84.988281 574.679688 Z M 80.574219 568.703125 L 80.574219 569.347656 L 81.433594 569.347656 L 81.433594 572.609375 C 81.0625 572.628906 80.710938 572.667969 80.320312 572.707031 L 80.398438 573.371094 C 81.746094 573.273438 83.015625 573.117188 84.167969 572.960938 L 84.167969 573.585938 L 84.890625 573.585938 L 84.890625 572.863281 C 85.144531 572.824219 85.398438 572.785156 85.671875 572.746094 L 85.671875 572.121094 C 85.417969 572.160156 85.144531 572.199219 84.890625 572.257812 L 84.890625 569.347656 L 85.671875 569.347656 L 85.671875 568.703125 Z M 82.136719 572.550781 L 82.136719 571.789062 L 84.167969 571.789062 L 84.167969 572.335938 C 83.542969 572.414062 82.859375 572.492188 82.136719 572.550781 Z M 82.136719 571.222656 L 82.136719 570.578125 L 84.167969 570.578125 L 84.167969 571.222656 Z M 82.136719 570.011719 L 82.136719 569.347656 L 84.167969 569.347656 L 84.167969 570.011719 Z M 86.433594 570.128906 L 85.945312 570.617188 C 86.550781 571.007812 87.136719 571.417969 87.644531 571.789062 C 87.136719 572.257812 86.53125 572.609375 85.867188 572.824219 L 86.179688 573.488281 C 86.960938 573.214844 87.644531 572.804688 88.230469 572.238281 C 88.71875 572.609375 89.148438 572.980469 89.519531 573.371094 L 90.046875 572.84375 C 89.65625 572.472656 89.207031 572.101562 88.699219 571.710938 C 89.148438 571.144531 89.558594 570.460938 89.871094 569.640625 L 89.871094 569.054688 L 86.003906 569.054688 L 86.003906 569.738281 L 89.050781 569.738281 C 88.777344 570.304688 88.484375 570.832031 88.113281 571.28125 C 87.605469 570.890625 87.039062 570.519531 86.433594 570.128906 Z M 82.996094 574.933594 C 82.683594 575.207031 82.332031 575.421875 81.960938 575.636719 C 81.511719 575.851562 81.042969 576.027344 80.496094 576.164062 L 80.886719 576.789062 C 81.53125 576.554688 82.078125 576.339844 82.488281 576.105469 C 82.859375 575.890625 83.230469 575.636719 83.601562 575.304688 Z M 83.875 576.164062 C 83.445312 576.515625 82.996094 576.828125 82.507812 577.082031 C 81.941406 577.375 81.335938 577.609375 80.632812 577.785156 L 81.023438 578.429688 C 81.863281 578.136719 82.527344 577.863281 83.054688 577.570312 C 83.523438 577.296875 84.011719 576.964844 84.480469 576.535156 Z M 83.875 576.164062 "/>
<path style=" stroke:none;fill-rule:nonzero;fill:rgb(0%,0%,0%);fill-opacity:1;" d="M 94.597656 572.589844 L 94.597656 573.3125 L 100.691406 573.3125 L 100.691406 572.589844 Z M 93.796875 574.425781 L 93.796875 575.167969 L 96.257812 575.167969 C 95.476562 576.4375 94.8125 577.21875 94.324219 577.511719 C 94.265625 577.53125 94.226562 577.570312 94.148438 577.589844 L 94.324219 578.273438 C 96.453125 578.136719 98.40625 577.941406 100.183594 577.707031 C 100.417969 577.980469 100.613281 578.273438 100.808594 578.566406 L 101.453125 578.117188 C 100.964844 577.394531 100.242188 576.535156 99.324219 575.558594 L 98.71875 575.929688 C 99.050781 576.320312 99.382812 576.691406 99.695312 577.0625 C 98.25 577.277344 96.785156 577.433594 95.300781 577.53125 C 95.828125 577.0625 96.433594 576.261719 97.117188 575.167969 L 101.433594 575.167969 L 101.433594 574.425781 Z M 100.066406 569.484375 L 100.066406 570.792969 L 93.445312 570.792969 L 93.445312 569.484375 Z M 93.445312 571.515625 L 100.847656 571.515625 L 100.847656 568.722656 L 92.664062 568.722656 L 92.664062 572.453125 C 92.644531 574.71875 92.253906 576.554688 91.472656 577.980469 L 92.058594 578.527344 C 92.976562 576.828125 93.445312 574.796875 93.445312 572.453125 Z M 93.445312 571.515625 "/>
<path style="fill:none;stroke-width:1;stroke-linecap:round;stroke-linejoin:round;stroke:rgb(0%,0%,0%);stroke-opacity:1;stroke-miterlimit:10;" d="M 215 364.68125 L 215 359.975 " transform="matrix(1.25,0,0,1.25,-208.75,177.5)"/>
<path style="fill:none;stroke-width:1;stroke-linecap:butt;stroke-linejoin:miter;stroke:rgb(0%,0%,0%);stroke-opacity:1;stroke-miterlimit:10;" d="M 215 355.975 L 215 359.975 M 213.5 359.975 L 215 355.975 L 216.5 359.975 " transform="matrix(1.25,0,0,1.25,-208.75,177.5)"/>
<path style="fill:none;stroke-width:1;stroke-linecap:round;stroke-linejoin:round;stroke:rgb(0%,0%,0%);stroke-opacity:1;stroke-miterlimit:10;" d="M 215 336.078125 L 215 331.378125 " transform="matrix(1.25,0,0,1.25,-208.75,177.5)"/>
<path style="fill:none;stroke-width:1;stroke-linecap:butt;stroke-linejoin:miter;stroke:rgb(0%,0%,0%);stroke-opacity:1;stroke-miterlimit:10;" d="M 215 327.378125 L 215 331.378125 M 213.5 331.378125 L 215 327.378125 L 216.5 331.378125 " transform="matrix(1.25,0,0,1.25,-208.75,177.5)"/>
<path style="fill:none;stroke-width:1;stroke-linecap:round;stroke-linejoin:round;stroke:rgb(0%,0%,0%);stroke-opacity:1;stroke-miterlimit:10;" d="M 214.95 307.475 L 214.89375 298.21875 " transform="matrix(1.25,0,0,1.25,-208.75,177.5)"/>
<path style="fill:none;stroke-width:1;stroke-linecap:butt;stroke-linejoin:miter;stroke:rgb(0%,0%,0%);stroke-opacity:1;stroke-miterlimit:10;" d="M 214.871875 294.21875 L 214.89375 298.21875 M 213.39375 298.23125 L 214.871875 294.21875 L 216.39375 298.2125 " transform="matrix(1.25,0,0,1.25,-208.75,177.5)"/>
<path style=" stroke:none;fill-rule:nonzero;fill:rgb(100%,100%,100%);fill-opacity:1;" d="M 156.742188 184.015625 L 187.992188 183.472656 L 188.4375 208.832031 L 157.183594 209.378906 Z M 156.742188 184.015625 "/>
<path style=" stroke:none;fill-rule:nonzero;fill:rgb(0%,0%,0%);fill-opacity:1;" d="M 165.265625 197.996094 L 166.261719 197.839844 C 166.390625 198.402344 166.585938 198.808594 166.847656 199.050781 C 167.121094 199.285156 167.457031 199.398438 167.863281 199.382812 C 168.316406 199.382812 168.703125 199.222656 169.015625 198.894531 C 169.339844 198.574219 169.496094 198.167969 169.484375 197.683594 C 169.46875 197.230469 169.3125 196.859375 169.015625 196.570312 C 168.714844 196.289062 168.335938 196.140625 167.882812 196.140625 C 167.6875 196.140625 167.457031 196.191406 167.199219 196.277344 L 167.296875 195.398438 C 167.359375 195.414062 167.414062 195.417969 167.453125 195.417969 C 167.867188 195.410156 168.238281 195.292969 168.566406 195.066406 C 168.902344 194.832031 169.074219 194.492188 169.074219 194.03125 C 169.058594 193.671875 168.929688 193.378906 168.683594 193.152344 C 168.433594 192.917969 168.117188 192.800781 167.726562 192.800781 C 167.347656 192.816406 167.027344 192.949219 166.769531 193.191406 C 166.519531 193.441406 166.363281 193.808594 166.300781 194.285156 L 165.304688 194.109375 C 165.421875 193.445312 165.6875 192.933594 166.105469 192.566406 C 166.519531 192.191406 167.046875 191.996094 167.6875 191.980469 C 168.128906 191.980469 168.53125 192.074219 168.898438 192.253906 C 169.273438 192.441406 169.5625 192.695312 169.757812 193.015625 C 169.964844 193.328125 170.074219 193.671875 170.089844 194.03125 C 170.089844 194.382812 169.996094 194.710938 169.816406 195.007812 C 169.632812 195.296875 169.359375 195.527344 168.996094 195.691406 C 169.476562 195.800781 169.847656 196.019531 170.109375 196.355469 C 170.382812 196.699219 170.523438 197.128906 170.539062 197.644531 C 170.550781 198.347656 170.304688 198.949219 169.796875 199.441406 C 169.289062 199.941406 168.644531 200.191406 167.863281 200.203125 C 167.160156 200.214844 166.566406 200.023438 166.085938 199.617188 C 165.617188 199.203125 165.34375 198.660156 165.265625 197.996094 Z M 165.265625 197.996094 "/>
<g clip-path="url(#clip3)" clip-rule="nonzero">
<g clip-path="url(#clip4)" clip-rule="nonzero">
<g clip-path="url(#clip5)" clip-rule="nonzero">
<g clip-path="url(#clip6)" clip-rule="nonzero">
<path style=" stroke:none;fill-rule:nonzero;fill:rgb(0%,0%,0%);fill-opacity:1;" d="M 177.636719 196.773438 L 179.84375 194.507812 C 179.941406 194.371094 179.980469 194.351562 179.980469 194.273438 C 179.980469 194.136719 179.863281 194.039062 179.746094 194.039062 C 179.667969 194.039062 179.609375 194.078125 179.511719 194.195312 L 177.304688 196.460938 L 175.019531 194.273438 C 174.902344 194.136719 174.863281 194.117188 174.785156 194.117188 C 174.667969 194.117188 174.550781 194.234375 174.550781 194.371094 C 174.550781 194.449219 174.609375 194.488281 174.726562 194.585938 L 176.972656 196.773438 L 174.785156 199.058594 C 174.6875 199.175781 174.648438 199.253906 174.648438 199.3125 C 174.648438 199.449219 174.765625 199.527344 174.882812 199.527344 C 174.960938 199.527344 175 199.507812 175.117188 199.371094 L 177.324219 197.105469 L 179.609375 199.292969 C 179.707031 199.410156 179.785156 199.449219 179.84375 199.449219 C 179.980469 199.449219 180.078125 199.351562 180.078125 199.214844 C 180.078125 199.136719 180.039062 199.117188 179.902344 198.980469 Z M 177.636719 196.773438 "/>
<path style=" stroke:none;fill-rule:nonzero;fill:rgb(0%,0%,0%);fill-opacity:1;" d="M 177.636719 196.773438 L 179.84375 194.507812 C 179.941406 194.371094 179.980469 194.351562 179.980469 194.273438 C 179.980469 194.136719 179.863281 194.039062 179.746094 194.039062 C 179.667969 194.039062 179.609375 194.078125 179.511719 194.195312 L 177.304688 196.460938 L 175.019531 194.273438 C 174.902344 194.136719 174.863281 194.117188 174.785156 194.117188 C 174.667969 194.117188 174.550781 194.234375 174.550781 194.371094 C 174.550781 194.449219 174.609375 194.488281 174.726562 194.585938 L 176.972656 196.773438 L 174.785156 199.058594 C 174.6875 199.175781 174.648438 199.253906 174.648438 199.3125 C 174.648438 199.449219 174.765625 199.527344 174.882812 199.527344 C 174.960938 199.527344 175 199.507812 175.117188 199.371094 L 177.324219 197.105469 L 179.609375 199.292969 C 179.707031 199.410156 179.785156 199.449219 179.84375 199.449219 C 179.980469 199.449219 180.078125 199.351562 180.078125 199.214844 C 180.078125 199.136719 180.039062 199.117188 179.902344 198.980469 Z M 177.636719 196.773438 "/>
</g>
</g>
</g>
</g>
<path style=" stroke:none;fill-rule:nonzero;fill:rgb(40%,74.901961%,100%);fill-opacity:1;" d="M 1.25 60.5 L 118.75 60.5 L 118.75 38 L 1.25 38 Z M 1.25 60.5 "/>
<path style="fill:none;stroke-width:1;stroke-linecap:round;stroke-linejoin:round;stroke:rgb(0%,0%,0%);stroke-opacity:1;stroke-miterlimit:10;" d="M 168 -111.6 L 262 -111.6 L 262 -93.6 L 168 -93.6 Z M 168 -111.6 " transform="matrix(1.25,0,0,1.25,-208.75,177.5)"/>
<path style=" stroke:none;fill-rule:nonzero;fill:rgb(0%,0%,0%);fill-opacity:1;" d="M 25.957031 44.464844 C 24.648438 45.890625 23.007812 47.082031 21.035156 48.039062 L 21.425781 48.742188 C 23.417969 47.746094 25.019531 46.554688 26.25 45.207031 C 27.578125 46.632812 29.160156 47.785156 31.035156 48.683594 L 31.445312 47.960938 C 29.589844 47.101562 27.96875 45.949219 26.542969 44.464844 Z M 23.105469 48.019531 L 23.105469 48.800781 L 25.839844 48.800781 L 25.839844 50.753906 L 22.578125 50.753906 L 22.578125 51.535156 L 25.839844 51.535156 L 25.839844 53.605469 L 21.5625 53.605469 L 21.5625 54.40625 L 30.9375 54.40625 L 30.9375 53.605469 L 26.660156 53.605469 L 26.660156 51.535156 L 29.921875 51.535156 L 29.921875 50.753906 L 26.660156 50.753906 L 26.660156 48.800781 L 29.394531 48.800781 L 29.394531 48.019531 Z M 23.105469 48.019531 "/>
<path style=" stroke:none;fill-rule:nonzero;fill:rgb(0%,0%,0%);fill-opacity:1;" d="M 35.585938 50.34375 L 35.585938 53.175781 L 39.550781 53.175781 L 39.550781 50.34375 Z M 38.828125 52.492188 L 36.328125 52.492188 L 36.328125 51.007812 L 38.828125 51.007812 Z M 40.703125 45.636719 L 40.703125 46.867188 L 34.550781 46.867188 L 34.550781 45.636719 Z M 34.550781 47.609375 L 41.484375 47.609375 L 41.484375 44.875 L 33.75 44.875 L 33.75 49.289062 C 33.75 51.261719 33.28125 52.882812 32.363281 54.132812 L 32.988281 54.699219 C 34.003906 53.195312 34.511719 51.417969 34.550781 49.328125 L 41.25 49.328125 C 41.230469 51.632812 41.210938 53 41.132812 53.449219 C 41.054688 53.820312 40.800781 53.996094 40.410156 53.996094 C 39.980469 53.996094 39.472656 53.976562 38.867188 53.957031 L 39.042969 54.640625 C 39.746094 54.679688 40.214844 54.679688 40.507812 54.679688 C 41.308594 54.679688 41.777344 54.367188 41.875 53.742188 C 41.992188 53.097656 42.050781 51.378906 42.050781 48.605469 L 34.550781 48.605469 Z M 34.550781 47.609375 "/>
<path style=" stroke:none;fill-rule:nonzero;fill:rgb(0%,0%,0%);fill-opacity:1;" d="M 44.21875 44.933594 L 44.21875 45.734375 L 48.28125 45.734375 L 48.28125 49.972656 L 43.769531 49.972656 L 43.769531 50.753906 L 48.28125 50.753906 L 48.28125 54.738281 L 49.121094 54.738281 L 49.121094 50.753906 L 53.730469 50.753906 L 53.730469 49.972656 L 49.121094 49.972656 L 49.121094 45.734375 L 53.300781 45.734375 L 53.300781 44.933594 Z M 45.585938 46.457031 L 44.84375 46.828125 C 45.253906 47.570312 45.664062 48.429688 46.054688 49.386719 L 46.796875 49.015625 C 46.425781 48.097656 46.015625 47.238281 45.585938 46.457031 Z M 51.972656 46.398438 C 51.640625 47.238281 51.210938 48.097656 50.644531 48.976562 L 51.367188 49.347656 C 51.914062 48.488281 52.363281 47.628906 52.714844 46.730469 Z M 51.972656 46.398438 "/>
<path style=" stroke:none;fill-rule:nonzero;fill:rgb(0%,0%,0%);fill-opacity:1;" d="M 62.832031 50.480469 C 61.796875 51.164062 60.546875 51.75 59.101562 52.21875 L 59.453125 52.980469 C 60.878906 52.472656 62.070312 51.886719 63.046875 51.222656 Z M 60.566406 48.097656 L 60.058594 48.605469 C 60.800781 49.171875 61.386719 49.71875 61.816406 50.207031 L 62.382812 49.660156 C 61.894531 49.132812 61.289062 48.605469 60.566406 48.097656 Z M 60.273438 44.367188 C 59.941406 45.96875 59.296875 47.316406 58.339844 48.429688 L 58.867188 49.132812 C 59.433594 48.488281 59.902344 47.746094 60.292969 46.925781 L 63.945312 46.925781 C 63.925781 50.34375 63.867188 52.355469 63.75 53.019531 C 63.652344 53.605469 63.320312 53.898438 62.734375 53.898438 C 62.285156 53.898438 61.757812 53.878906 61.152344 53.859375 L 61.347656 54.621094 C 62.070312 54.640625 62.578125 54.660156 62.871094 54.660156 C 63.867188 54.660156 64.414062 54.191406 64.53125 53.292969 C 64.667969 52.394531 64.726562 50.011719 64.726562 46.144531 L 60.625 46.144531 C 60.800781 45.617188 60.976562 45.050781 61.09375 44.464844 Z M 54.902344 47.433594 L 54.902344 48.214844 L 56.132812 48.214844 L 56.132812 52.21875 C 55.703125 52.335938 55.253906 52.414062 54.785156 52.492188 L 55 53.351562 C 56.269531 53.078125 57.441406 52.726562 58.535156 52.316406 L 58.535156 51.476562 C 58.027344 51.671875 57.5 51.847656 56.953125 52.003906 L 56.953125 48.214844 L 58.125 48.214844 L 58.125 47.433594 L 56.953125 47.433594 L 56.953125 44.484375 L 56.132812 44.484375 L 56.132812 47.433594 Z M 54.902344 47.433594 "/>
<path style=" stroke:none;fill-rule:nonzero;fill:rgb(0%,0%,0%);fill-opacity:1;" d="M 70.78125 53.546875 L 70.78125 45.695312 L 76.132812 45.695312 L 76.132812 44.914062 L 69.960938 44.914062 L 69.960938 54.367188 L 76.230469 54.367188 L 76.230469 53.546875 Z M 66.992188 44.640625 L 66.425781 45.207031 C 67.363281 45.8125 68.085938 46.378906 68.59375 46.925781 L 69.160156 46.339844 C 68.574219 45.792969 67.871094 45.207031 66.992188 44.640625 Z M 66.777344 47.394531 L 66.191406 47.960938 C 67.070312 48.546875 67.734375 49.09375 68.242188 49.621094 L 68.828125 49.035156 C 68.261719 48.488281 67.578125 47.941406 66.777344 47.394531 Z M 68.105469 50.714844 C 67.617188 51.945312 67.011719 53.15625 66.347656 54.328125 L 67.167969 54.699219 C 67.792969 53.566406 68.339844 52.316406 68.867188 51.007812 Z M 68.105469 50.714844 "/>
<path style=" stroke:none;fill-rule:nonzero;fill:rgb(0%,0%,0%);fill-opacity:1;" d="M 82.167969 50.832031 L 82.167969 54.71875 L 82.910156 54.71875 L 82.910156 50.753906 L 83.515625 50.65625 C 83.945312 52.335938 85.117188 53.664062 87.03125 54.640625 L 87.441406 53.957031 C 86.582031 53.566406 85.859375 53.097656 85.3125 52.550781 C 85.957031 52.160156 86.503906 51.789062 86.914062 51.417969 L 86.484375 50.851562 C 86.054688 51.261719 85.507812 51.652344 84.863281 52.042969 C 84.53125 51.59375 84.277344 51.085938 84.140625 50.539062 C 84.902344 50.382812 85.605469 50.1875 86.25 49.933594 L 85.878906 49.308594 C 83.925781 49.972656 81.425781 50.324219 78.4375 50.324219 L 78.671875 51.007812 C 79.941406 51.007812 81.113281 50.949219 82.167969 50.832031 Z M 77.753906 44.855469 L 77.753906 45.5 L 78.613281 45.5 L 78.613281 48.761719 C 78.242188 48.78125 77.890625 48.820312 77.5 48.859375 L 77.578125 49.523438 C 78.925781 49.425781 80.195312 49.269531 81.347656 49.113281 L 81.347656 49.738281 L 82.070312 49.738281 L 82.070312 49.015625 C 82.324219 48.976562 82.578125 48.9375 82.851562 48.898438 L 82.851562 48.273438 C 82.597656 48.3125 82.324219 48.351562 82.070312 48.410156 L 82.070312 45.5 L 82.851562 45.5 L 82.851562 44.855469 Z M 79.316406 48.703125 L 79.316406 47.941406 L 81.347656 47.941406 L 81.347656 48.488281 C 80.722656 48.566406 80.039062 48.644531 79.316406 48.703125 Z M 79.316406 47.375 L 79.316406 46.730469 L 81.347656 46.730469 L 81.347656 47.375 Z M 79.316406 46.164062 L 79.316406 45.5 L 81.347656 45.5 L 81.347656 46.164062 Z M 83.613281 46.28125 L 83.125 46.769531 C 83.730469 47.160156 84.316406 47.570312 84.824219 47.941406 C 84.316406 48.410156 83.710938 48.761719 83.046875 48.976562 L 83.359375 49.640625 C 84.140625 49.367188 84.824219 48.957031 85.410156 48.390625 C 85.898438 48.761719 86.328125 49.132812 86.699219 49.523438 L 87.226562 48.996094 C 86.835938 48.625 86.386719 48.253906 85.878906 47.863281 C 86.328125 47.296875 86.738281 46.613281 87.050781 45.792969 L 87.050781 45.207031 L 83.183594 45.207031 L 83.183594 45.890625 L 86.230469 45.890625 C 85.957031 46.457031 85.664062 46.984375 85.292969 47.433594 C 84.785156 47.042969 84.21875 46.671875 83.613281 46.28125 Z M 80.175781 51.085938 C 79.863281 51.359375 79.511719 51.574219 79.140625 51.789062 C 78.691406 52.003906 78.222656 52.179688 77.675781 52.316406 L 78.066406 52.941406 C 78.710938 52.707031 79.257812 52.492188 79.667969 52.257812 C 80.039062 52.042969 80.410156 51.789062 80.78125 51.457031 Z M 81.054688 52.316406 C 80.625 52.667969 80.175781 52.980469 79.6875 53.234375 C 79.121094 53.527344 78.515625 53.761719 77.8125 53.9375 L 78.203125 54.582031 C 79.042969 54.289062 79.707031 54.015625 80.234375 53.722656 C 80.703125 53.449219 81.191406 53.117188 81.660156 52.6875 Z M 81.054688 52.316406 "/>
<path style=" stroke:none;fill-rule:nonzero;fill:rgb(0%,0%,0%);fill-opacity:1;" d="M 91.777344 48.742188 L 91.777344 49.464844 L 97.871094 49.464844 L 97.871094 48.742188 Z M 90.976562 50.578125 L 90.976562 51.320312 L 93.4375 51.320312 C 92.65625 52.589844 91.992188 53.371094 91.503906 53.664062 C 91.445312 53.683594 91.40625 53.722656 91.328125 53.742188 L 91.503906 54.425781 C 93.632812 54.289062 95.585938 54.09375 97.363281 53.859375 C 97.597656 54.132812 97.792969 54.425781 97.988281 54.71875 L 98.632812 54.269531 C 98.144531 53.546875 97.421875 52.6875 96.503906 51.710938 L 95.898438 52.082031 C 96.230469 52.472656 96.5625 52.84375 96.875 53.214844 C 95.429688 53.429688 93.964844 53.585938 92.480469 53.683594 C 93.007812 53.214844 93.613281 52.414062 94.296875 51.320312 L 98.613281 51.320312 L 98.613281 50.578125 Z M 97.246094 45.636719 L 97.246094 46.945312 L 90.625 46.945312 L 90.625 45.636719 Z M 90.625 47.667969 L 98.027344 47.667969 L 98.027344 44.875 L 89.84375 44.875 L 89.84375 48.605469 C 89.824219 50.871094 89.433594 52.707031 88.652344 54.132812 L 89.238281 54.679688 C 90.15625 52.980469 90.625 50.949219 90.625 48.605469 Z M 90.625 47.667969 "/>
<path style="fill:none;stroke-width:1;stroke-linecap:round;stroke-linejoin:round;stroke:rgb(0%,0%,0%);stroke-opacity:1;stroke-miterlimit:10;" d="M 214.8625 -81.73125 L 214.903125 -87.7 " transform="matrix(1.25,0,0,1.25,-208.75,177.5)"/>
<path style="fill:none;stroke-width:1;stroke-linecap:butt;stroke-linejoin:miter;stroke:rgb(0%,0%,0%);stroke-opacity:1;stroke-miterlimit:10;" d="M 214.93125 -91.7 L 214.903125 -87.7 M 213.403125 -87.7125 L 214.93125 -91.7 L 216.403125 -87.690625 " transform="matrix(1.25,0,0,1.25,-208.75,177.5)"/>
<path style="fill:none;stroke-width:1;stroke-linecap:round;stroke-linejoin:round;stroke:rgb(0%,0%,0%);stroke-opacity:1;stroke-miterlimit:10;" d="M 167.68125 -141.46875 L 261.68125 -141.46875 L 261.68125 -123.46875 L 167.68125 -123.46875 Z M 167.68125 -141.46875 " transform="matrix(1.25,0,0,1.25,-208.75,177.5)"/>
<path style=" stroke:none;fill-rule:nonzero;fill:rgb(0%,0%,0%);fill-opacity:1;" d="M 42.429688 7.128906 C 41.121094 8.554688 39.480469 9.746094 37.507812 10.703125 L 37.898438 11.40625 C 39.890625 10.410156 41.492188 9.21875 42.722656 7.871094 C 44.050781 9.296875 45.632812 10.449219 47.507812 11.347656 L 47.917969 10.625 C 46.0625 9.765625 44.441406 8.613281 43.015625 7.128906 Z M 39.578125 10.683594 L 39.578125 11.464844 L 42.3125 11.464844 L 42.3125 13.417969 L 39.050781 13.417969 L 39.050781 14.199219 L 42.3125 14.199219 L 42.3125 16.269531 L 38.035156 16.269531 L 38.035156 17.070312 L 47.410156 17.070312 L 47.410156 16.269531 L 43.132812 16.269531 L 43.132812 14.199219 L 46.394531 14.199219 L 46.394531 13.417969 L 43.132812 13.417969 L 43.132812 11.464844 L 45.867188 11.464844 L 45.867188 10.683594 Z M 39.578125 10.683594 "/>
<path style=" stroke:none;fill-rule:nonzero;fill:rgb(0%,0%,0%);fill-opacity:1;" d="M 49.792969 7.285156 L 49.246094 7.8125 C 50.027344 8.457031 50.671875 9.042969 51.121094 9.589844 L 51.707031 9.023438 C 51.179688 8.4375 50.535156 7.871094 49.792969 7.285156 Z M 56.316406 17.207031 L 58.894531 17.207031 L 59.089844 16.40625 C 58.796875 16.425781 58.367188 16.425781 57.839844 16.445312 C 57.273438 16.464844 56.746094 16.464844 56.21875 16.464844 C 55.339844 16.464844 54.617188 16.464844 54.03125 16.445312 C 53.367188 16.425781 52.878906 16.328125 52.527344 16.171875 C 52.214844 16.035156 51.941406 15.800781 51.667969 15.46875 C 51.570312 15.371094 51.492188 15.273438 51.394531 15.214844 L 51.394531 10.996094 L 49.03125 10.996094 L 49.03125 11.738281 L 50.652344 11.738281 L 50.652344 15.15625 C 50.183594 15.371094 49.65625 15.9375 49.050781 16.894531 L 49.65625 17.441406 C 50.28125 16.40625 50.730469 15.878906 50.984375 15.878906 C 51.121094 15.878906 51.277344 15.976562 51.414062 16.171875 C 51.765625 16.5625 52.15625 16.855469 52.605469 16.992188 C 53.054688 17.109375 53.621094 17.1875 54.34375 17.1875 C 55.046875 17.207031 55.710938 17.207031 56.316406 17.207031 Z M 52.175781 8.261719 L 52.175781 9.003906 L 53.660156 9.003906 C 53.289062 9.804688 52.878906 10.488281 52.429688 11.015625 L 52.605469 11.757812 L 55.203125 11.757812 L 55.203125 13.105469 L 52.078125 13.105469 L 52.078125 13.867188 L 55.203125 13.867188 L 55.203125 15.957031 L 55.984375 15.957031 L 55.984375 13.867188 L 58.914062 13.867188 L 58.914062 13.105469 L 55.984375 13.105469 L 55.984375 11.757812 L 58.425781 11.757812 L 58.425781 11.015625 L 55.984375 11.015625 L 55.984375 9.6875 L 55.203125 9.6875 L 55.203125 11.015625 L 53.386719 11.015625 C 53.796875 10.429688 54.167969 9.765625 54.519531 9.003906 L 58.777344 9.003906 L 58.777344 8.261719 L 54.832031 8.261719 C 54.96875 7.910156 55.085938 7.578125 55.203125 7.207031 L 54.441406 7.011719 C 54.304688 7.441406 54.148438 7.871094 53.992188 8.261719 Z M 52.175781 8.261719 "/>
<path style=" stroke:none;fill-rule:nonzero;fill:rgb(0%,0%,0%);fill-opacity:1;" d="M 65.554688 9.003906 L 64.890625 9.316406 C 65.125 9.726562 65.339844 10.175781 65.574219 10.664062 L 63.855469 10.664062 L 63.855469 11.445312 L 70.125 11.445312 L 70.125 10.664062 L 68.308594 10.664062 C 68.5625 10.214844 68.796875 9.707031 69.011719 9.140625 L 68.25 8.867188 C 68.015625 9.511719 67.761719 10.097656 67.449219 10.664062 L 66.355469 10.664062 C 66.101562 10.058594 65.847656 9.511719 65.554688 9.003906 Z M 67.039062 7.03125 L 66.199219 7.167969 C 66.316406 7.441406 66.453125 7.753906 66.589844 8.105469 L 64.109375 8.105469 L 64.109375 8.847656 L 69.929688 8.847656 L 69.929688 8.105469 L 67.410156 8.105469 C 67.273438 7.714844 67.15625 7.34375 67.039062 7.03125 Z M 61.414062 17.304688 C 62.078125 17.304688 62.429688 16.992188 62.429688 16.328125 L 62.429688 13.007812 C 62.742188 12.851562 63.054688 12.695312 63.367188 12.539062 L 63.367188 11.71875 C 63.054688 11.875 62.742188 12.03125 62.429688 12.1875 L 62.429688 10.039062 L 63.347656 10.039062 L 63.347656 9.257812 L 62.429688 9.257812 L 62.429688 7.128906 L 61.589844 7.128906 L 61.589844 9.257812 L 60.222656 9.257812 L 60.222656 10.039062 L 61.589844 10.039062 L 61.589844 12.539062 C 61.0625 12.753906 60.535156 12.910156 60.007812 13.046875 L 60.222656 13.867188 C 60.671875 13.710938 61.140625 13.535156 61.589844 13.359375 L 61.589844 16.132812 C 61.589844 16.425781 61.433594 16.5625 61.140625 16.5625 C 60.867188 16.5625 60.574219 16.542969 60.28125 16.523438 L 60.4375 17.304688 Z M 66.042969 11.757812 C 65.925781 12.070312 65.789062 12.382812 65.632812 12.714844 L 63.699219 12.714844 L 63.699219 13.515625 L 65.203125 13.515625 C 64.96875 13.945312 64.714844 14.375 64.402344 14.84375 C 65.183594 15.15625 65.925781 15.449219 66.609375 15.78125 C 65.90625 16.171875 64.890625 16.484375 63.582031 16.71875 L 63.914062 17.460938 C 65.535156 17.148438 66.707031 16.699219 67.449219 16.171875 C 68.347656 16.601562 69.128906 17.011719 69.792969 17.421875 L 70.242188 16.777344 C 69.539062 16.367188 68.796875 15.976562 68.015625 15.625 C 68.542969 15.058594 68.894531 14.335938 69.070312 13.515625 L 70.300781 13.515625 L 70.300781 12.714844 L 66.453125 12.714844 C 66.589844 12.441406 66.707031 12.148438 66.824219 11.835938 Z M 68.308594 13.515625 C 68.132812 14.238281 67.78125 14.824219 67.273438 15.292969 C 66.667969 15.019531 66.042969 14.765625 65.398438 14.511719 C 65.613281 14.199219 65.828125 13.867188 66.023438 13.515625 Z M 68.308594 13.515625 "/>
<path style=" stroke:none;fill-rule:nonzero;fill:rgb(0%,0%,0%);fill-opacity:1;" d="M 74.5 11.40625 L 74.5 12.128906 L 80.59375 12.128906 L 80.59375 11.40625 Z M 73.699219 13.242188 L 73.699219 13.984375 L 76.160156 13.984375 C 75.378906 15.253906 74.714844 16.035156 74.226562 16.328125 C 74.167969 16.347656 74.128906 16.386719 74.050781 16.40625 L 74.226562 17.089844 C 76.355469 16.953125 78.308594 16.757812 80.085938 16.523438 C 80.320312 16.796875 80.515625 17.089844 80.710938 17.382812 L 81.355469 16.933594 C 80.867188 16.210938 80.144531 15.351562 79.226562 14.375 L 78.621094 14.746094 C 78.953125 15.136719 79.285156 15.507812 79.597656 15.878906 C 78.152344 16.09375 76.6875 16.25 75.203125 16.347656 C 75.730469 15.878906 76.335938 15.078125 77.019531 13.984375 L 81.335938 13.984375 L 81.335938 13.242188 Z M 79.96875 8.300781 L 79.96875 9.609375 L 73.347656 9.609375 L 73.347656 8.300781 Z M 73.347656 10.332031 L 80.75 10.332031 L 80.75 7.539062 L 72.566406 7.539062 L 72.566406 11.269531 C 72.546875 13.535156 72.15625 15.371094 71.375 16.796875 L 71.960938 17.34375 C 72.878906 15.644531 73.347656 13.613281 73.347656 11.269531 Z M 73.347656 10.332031 "/>
<path style="fill:none;stroke-width:1;stroke-linecap:round;stroke-linejoin:round;stroke:rgb(0%,0%,0%);stroke-opacity:1;stroke-miterlimit:10;" d="M 214.903125 -111.6 L 214.840625 -117.56875 " transform="matrix(1.25,0,0,1.25,-208.75,177.5)"/>
<path style="fill:none;stroke-width:1;stroke-linecap:butt;stroke-linejoin:miter;stroke:rgb(0%,0%,0%);stroke-opacity:1;stroke-miterlimit:10;" d="M 214.796875 -121.56875 L 214.840625 -117.56875 M 213.340625 -117.55625 L 214.796875 -121.56875 L 216.340625 -117.5875 " transform="matrix(1.25,0,0,1.25,-208.75,177.5)"/>
</g>
</svg>
